<?xml version="1.0" encoding="utf-8" standalone="no"?>
<!DOCTYPE svg PUBLIC "-//W3C//DTD SVG 1.1//EN"
  "http://www.w3.org/Graphics/SVG/1.1/DTD/svg11.dtd">
<svg xmlns:xlink="http://www.w3.org/1999/xlink" width="691.675pt" height="691.885pt" viewBox="0 0 691.675 691.885" xmlns="http://www.w3.org/2000/svg" version="1.1">
 <metadata>
  <rdf:RDF xmlns:dc="http://purl.org/dc/elements/1.1/" xmlns:cc="http://creativecommons.org/ns#" xmlns:rdf="http://www.w3.org/1999/02/22-rdf-syntax-ns#">
   <cc:Work>
    <dc:type rdf:resource="http://purl.org/dc/dcmitype/StillImage"/>
    <dc:date>2026-04-21T19:37:51.643975</dc:date>
    <dc:format>image/svg+xml</dc:format>
    <dc:creator>
     <cc:Agent>
      <dc:title>Matplotlib v3.9.4, https://matplotlib.org/</dc:title>
     </cc:Agent>
    </dc:creator>
   </cc:Work>
  </rdf:RDF>
 </metadata>
 <defs>
  <style type="text/css">*{stroke-linejoin: round; stroke-linecap: butt}</style>
 </defs>
 <g id="figure_1">
  <g id="patch_1">
   <path d="M 0 691.885 
L 691.675 691.885 
L 691.675 0 
L 0 0 
z
" style="fill: #ffffff"/>
  </g>
  <g id="axes_1">
   <g id="patch_2">
    <path d="M 81.775 639.06 
L 684.475 639.06 
L 684.475 7.2 
L 81.775 7.2 
z
" style="fill: #ffffff"/>
   </g>
   <g id="matplotlib.axis_1">
    <g id="xtick_1">
     <g id="line2d_1">
      <path d="M 232.45 639.06 
L 232.45 7.2 
" clip-path="url(#pf7d29f3128)" style="fill: none; stroke-dasharray: 2.96,1.28; stroke-dashoffset: 0; stroke: #cccccc; stroke-opacity: 0.4; stroke-width: 0.8"/>
     </g>
     <g id="line2d_2">
      <defs>
       <path id="mf1a15a20e1" d="M 0 0 
L 0 -8 
" style="stroke: #262626; stroke-width: 1.25"/>
      </defs>
      <g>
       <use xlink:href="#mf1a15a20e1" x="232.45" y="639.06" style="fill: #262626; stroke: #262626; stroke-width: 1.25"/>
      </g>
     </g>
     <g id="text_1">
      <!-- No -->
      <g style="fill: #262626" transform="translate(220.446875 657.56) scale(0.2 -0.2)">
       <defs>
        <path id="RobotoMonoNFM-Rg-4e" d="M 3394 0 
L 3394 4550 
L 2809 4550 
L 2800 1156 
L 1034 4550 
L 447 4550 
L 447 0 
L 1031 0 
L 1041 3400 
L 2806 0 
L 3394 0 
z
" transform="scale(0.015625)"/>
        <path id="RobotoMonoNFM-Rg-6f" d="M 381 1722 
L 381 1653 
Q 381 1288 487 975 
Q 594 663 794 431 
Q 991 200 1277 68 
Q 1563 -63 1922 -63 
Q 2278 -63 2562 68 
Q 2847 200 3047 431 
Q 3244 663 3350 975 
Q 3456 1288 3456 1653 
L 3456 1722 
Q 3456 2088 3350 2402 
Q 3244 2716 3047 2947 
Q 2847 3178 2561 3311 
Q 2275 3444 1916 3444 
Q 1559 3444 1275 3311 
Q 991 3178 794 2947 
Q 594 2716 487 2402 
Q 381 2088 381 1722 
z
M 959 1653 
L 959 1722 
Q 959 1969 1018 2195 
Q 1078 2422 1200 2594 
Q 1319 2766 1497 2867 
Q 1675 2969 1916 2969 
Q 2156 2969 2336 2867 
Q 2516 2766 2638 2594 
Q 2756 2422 2817 2195 
Q 2878 1969 2878 1722 
L 2878 1653 
Q 2878 1403 2818 1176 
Q 2759 950 2641 778 
Q 2519 606 2339 506 
Q 2159 406 1922 406 
Q 1681 406 1500 506 
Q 1319 606 1200 778 
Q 1078 950 1018 1176 
Q 959 1403 959 1653 
z
" transform="scale(0.015625)"/>
       </defs>
       <use xlink:href="#RobotoMonoNFM-Rg-4e"/>
       <use xlink:href="#RobotoMonoNFM-Rg-6f" x="60.009766"/>
      </g>
     </g>
    </g>
    <g id="xtick_2">
     <g id="line2d_3">
      <path d="M 533.8 639.06 
L 533.8 7.2 
" clip-path="url(#pf7d29f3128)" style="fill: none; stroke-dasharray: 2.96,1.28; stroke-dashoffset: 0; stroke: #cccccc; stroke-opacity: 0.4; stroke-width: 0.8"/>
     </g>
     <g id="line2d_4">
      <g>
       <use xlink:href="#mf1a15a20e1" x="533.8" y="639.06" style="fill: #262626; stroke: #262626; stroke-width: 1.25"/>
      </g>
     </g>
     <g id="text_2">
      <!-- Yes -->
      <g style="fill: #262626" transform="translate(515.795313 657.56) scale(0.2 -0.2)">
       <defs>
        <path id="RobotoMonoNFM-Rg-59" d="M 1884 2266 
L 850 4550 
L 191 4550 
L 1606 1697 
L 1616 0 
L 2153 0 
L 2163 1697 
L 3578 4550 
L 2922 4550 
L 1884 2266 
z
" transform="scale(0.015625)"/>
        <path id="RobotoMonoNFM-Rg-65" d="M 2038 -63 
Q 2531 -63 2867 135 
Q 3203 334 3372 591 
L 3019 866 
Q 2859 659 2618 534 
Q 2378 409 2069 409 
Q 1834 409 1640 496 
Q 1447 584 1309 738 
Q 1175 881 1098 1068 
Q 1022 1256 1000 1503 
L 1000 1525 
L 3416 1525 
L 3416 1784 
Q 3416 2138 3327 2441 
Q 3238 2744 3056 2969 
Q 2875 3191 2601 3317 
Q 2328 3444 1963 3444 
Q 1672 3444 1395 3325 
Q 1119 3206 903 2984 
Q 684 2759 553 2436 
Q 422 2113 422 1703 
L 422 1572 
Q 422 1219 540 919 
Q 659 619 872 400 
Q 1084 181 1382 59 
Q 1681 -63 2038 -63 
z
M 1963 2969 
Q 2184 2969 2345 2887 
Q 2506 2806 2613 2675 
Q 2719 2544 2778 2364 
Q 2838 2184 2838 2028 
L 2838 2000 
L 1019 2000 
Q 1053 2234 1139 2414 
Q 1225 2594 1350 2719 
Q 1475 2841 1631 2905 
Q 1788 2969 1963 2969 
z
" transform="scale(0.015625)"/>
        <path id="RobotoMonoNFM-Rg-73" d="M 2791 897 
Q 2791 816 2759 744 
Q 2728 672 2669 613 
Q 2572 516 2400 461 
Q 2228 406 1997 406 
Q 1850 406 1700 437 
Q 1550 469 1428 544 
Q 1303 619 1220 741 
Q 1138 863 1125 1041 
L 547 1041 
Q 547 825 645 625 
Q 744 425 931 275 
Q 1116 122 1384 29 
Q 1653 -63 1997 -63 
Q 2297 -63 2550 9 
Q 2803 81 2984 213 
Q 3166 344 3267 528 
Q 3369 713 3369 938 
Q 3369 1147 3280 1306 
Q 3191 1466 3022 1588 
Q 2853 1706 2606 1792 
Q 2359 1878 2047 1944 
Q 1809 1991 1654 2041 
Q 1500 2091 1409 2153 
Q 1316 2216 1278 2294 
Q 1241 2372 1241 2472 
Q 1241 2569 1287 2659 
Q 1334 2750 1428 2819 
Q 1519 2888 1658 2928 
Q 1797 2969 1981 2969 
Q 2159 2969 2301 2919 
Q 2444 2869 2544 2788 
Q 2644 2706 2700 2601 
Q 2756 2497 2756 2388 
L 3334 2388 
Q 3334 2609 3239 2801 
Q 3144 2994 2969 3138 
Q 2794 3281 2544 3362 
Q 2294 3444 1981 3444 
Q 1691 3444 1448 3366 
Q 1206 3288 1031 3153 
Q 856 3019 759 2839 
Q 663 2659 663 2453 
Q 663 2244 756 2086 
Q 850 1928 1022 1813 
Q 1191 1694 1430 1609 
Q 1669 1525 1959 1466 
Q 2197 1419 2356 1361 
Q 2516 1303 2613 1234 
Q 2709 1166 2750 1083 
Q 2791 1000 2791 897 
z
" transform="scale(0.015625)"/>
       </defs>
       <use xlink:href="#RobotoMonoNFM-Rg-59"/>
       <use xlink:href="#RobotoMonoNFM-Rg-65" x="60.009766"/>
       <use xlink:href="#RobotoMonoNFM-Rg-73" x="120.019531"/>
      </g>
     </g>
    </g>
    <g id="xtick_3">
     <g id="line2d_5">
      <path d="M 111.91 639.06 
L 111.91 7.2 
" clip-path="url(#pf7d29f3128)" style="fill: none; stroke-dasharray: 0.5,0.825; stroke-dashoffset: 0; stroke: #cccccc; stroke-opacity: 0.3; stroke-width: 0.5"/>
     </g>
     <g id="line2d_6">
      <defs>
       <path id="mb5d8af53c6" d="M 0 0 
L 0 -4 
" style="stroke: #262626"/>
      </defs>
      <g>
       <use xlink:href="#mb5d8af53c6" x="111.91" y="639.06" style="fill: #262626; stroke: #262626"/>
      </g>
     </g>
    </g>
    <g id="xtick_4">
     <g id="line2d_7">
      <path d="M 172.18 639.06 
L 172.18 7.2 
" clip-path="url(#pf7d29f3128)" style="fill: none; stroke-dasharray: 0.5,0.825; stroke-dashoffset: 0; stroke: #cccccc; stroke-opacity: 0.3; stroke-width: 0.5"/>
     </g>
     <g id="line2d_8">
      <g>
       <use xlink:href="#mb5d8af53c6" x="172.18" y="639.06" style="fill: #262626; stroke: #262626"/>
      </g>
     </g>
    </g>
    <g id="xtick_5">
     <g id="line2d_9">
      <path d="M 292.72 639.06 
L 292.72 7.2 
" clip-path="url(#pf7d29f3128)" style="fill: none; stroke-dasharray: 0.5,0.825; stroke-dashoffset: 0; stroke: #cccccc; stroke-opacity: 0.3; stroke-width: 0.5"/>
     </g>
     <g id="line2d_10">
      <g>
       <use xlink:href="#mb5d8af53c6" x="292.72" y="639.06" style="fill: #262626; stroke: #262626"/>
      </g>
     </g>
    </g>
    <g id="xtick_6">
     <g id="line2d_11">
      <path d="M 352.99 639.06 
L 352.99 7.2 
" clip-path="url(#pf7d29f3128)" style="fill: none; stroke-dasharray: 0.5,0.825; stroke-dashoffset: 0; stroke: #cccccc; stroke-opacity: 0.3; stroke-width: 0.5"/>
     </g>
     <g id="line2d_12">
      <g>
       <use xlink:href="#mb5d8af53c6" x="352.99" y="639.06" style="fill: #262626; stroke: #262626"/>
      </g>
     </g>
    </g>
    <g id="xtick_7">
     <g id="line2d_13">
      <path d="M 413.26 639.06 
L 413.26 7.2 
" clip-path="url(#pf7d29f3128)" style="fill: none; stroke-dasharray: 0.5,0.825; stroke-dashoffset: 0; stroke: #cccccc; stroke-opacity: 0.3; stroke-width: 0.5"/>
     </g>
     <g id="line2d_14">
      <g>
       <use xlink:href="#mb5d8af53c6" x="413.26" y="639.06" style="fill: #262626; stroke: #262626"/>
      </g>
     </g>
    </g>
    <g id="xtick_8">
     <g id="line2d_15">
      <path d="M 473.53 639.06 
L 473.53 7.2 
" clip-path="url(#pf7d29f3128)" style="fill: none; stroke-dasharray: 0.5,0.825; stroke-dashoffset: 0; stroke: #cccccc; stroke-opacity: 0.3; stroke-width: 0.5"/>
     </g>
     <g id="line2d_16">
      <g>
       <use xlink:href="#mb5d8af53c6" x="473.53" y="639.06" style="fill: #262626; stroke: #262626"/>
      </g>
     </g>
    </g>
    <g id="xtick_9">
     <g id="line2d_17">
      <path d="M 594.07 639.06 
L 594.07 7.2 
" clip-path="url(#pf7d29f3128)" style="fill: none; stroke-dasharray: 0.5,0.825; stroke-dashoffset: 0; stroke: #cccccc; stroke-opacity: 0.3; stroke-width: 0.5"/>
     </g>
     <g id="line2d_18">
      <g>
       <use xlink:href="#mb5d8af53c6" x="594.07" y="639.06" style="fill: #262626; stroke: #262626"/>
      </g>
     </g>
    </g>
    <g id="xtick_10">
     <g id="line2d_19">
      <path d="M 654.34 639.06 
L 654.34 7.2 
" clip-path="url(#pf7d29f3128)" style="fill: none; stroke-dasharray: 0.5,0.825; stroke-dashoffset: 0; stroke: #cccccc; stroke-opacity: 0.3; stroke-width: 0.5"/>
     </g>
     <g id="line2d_20">
      <g>
       <use xlink:href="#mb5d8af53c6" x="654.34" y="639.06" style="fill: #262626; stroke: #262626"/>
      </g>
     </g>
    </g>
    <g id="text_3">
     <!-- Stroke Event -->
     <g style="fill: #262626" transform="translate(311.10625 680.6225) scale(0.2 -0.2)">
      <defs>
       <path id="RobotoMonoNFM-Rg-53" d="M 2925 1150 
Q 2925 963 2844 827 
Q 2763 691 2634 603 
Q 2506 513 2342 470 
Q 2178 428 2009 428 
Q 1797 428 1617 486 
Q 1438 544 1300 659 
Q 1163 772 1075 936 
Q 988 1100 959 1313 
L 369 1313 
Q 378 1019 498 780 
Q 619 541 825 363 
Q 1056 156 1370 46 
Q 1684 -63 2009 -63 
Q 2281 -63 2553 14 
Q 2825 91 3041 244 
Q 3256 394 3392 622 
Q 3528 850 3528 1156 
Q 3528 1459 3401 1690 
Q 3275 1922 3069 2081 
Q 2859 2253 2606 2364 
Q 2353 2475 2100 2553 
Q 1947 2600 1773 2662 
Q 1600 2725 1453 2819 
Q 1303 2913 1206 3048 
Q 1109 3184 1106 3381 
Q 1106 3563 1179 3700 
Q 1253 3838 1378 3931 
Q 1500 4025 1658 4072 
Q 1816 4119 1981 4119 
Q 2188 4119 2352 4055 
Q 2516 3991 2634 3875 
Q 2753 3759 2825 3598 
Q 2897 3438 2922 3241 
L 3516 3241 
Q 3509 3553 3381 3806 
Q 3253 4059 3041 4238 
Q 2828 4416 2553 4514 
Q 2278 4613 1981 4613 
Q 1713 4613 1447 4530 
Q 1181 4447 972 4288 
Q 763 4128 633 3897 
Q 503 3666 503 3372 
Q 503 3078 633 2861 
Q 763 2644 969 2484 
Q 1172 2328 1420 2217 
Q 1669 2106 1909 2028 
Q 2075 1975 2254 1909 
Q 2434 1844 2584 1747 
Q 2734 1647 2829 1503 
Q 2925 1359 2925 1150 
z
" transform="scale(0.015625)"/>
       <path id="RobotoMonoNFM-Rg-74" d="M 1913 4200 
L 1331 4200 
L 1331 3381 
L 444 3381 
L 444 2934 
L 1331 2934 
L 1331 1097 
Q 1331 784 1414 564 
Q 1497 344 1641 206 
Q 1784 66 1979 1 
Q 2175 -63 2400 -63 
Q 2534 -63 2670 -50 
Q 2806 -38 2928 -13 
Q 3050 9 3153 42 
Q 3256 75 3328 119 
L 3247 528 
Q 3194 516 3111 498 
Q 3028 481 2934 466 
Q 2838 450 2738 439 
Q 2638 428 2544 428 
Q 2416 428 2302 459 
Q 2188 491 2100 569 
Q 2013 644 1963 772 
Q 1913 900 1913 1097 
L 1913 2934 
L 3200 2934 
L 3200 3381 
L 1913 3381 
L 1913 4200 
z
" transform="scale(0.015625)"/>
       <path id="RobotoMonoNFM-Rg-72" d="M 2759 3444 
Q 2391 3444 2102 3283 
Q 1813 3122 1606 2844 
L 1603 2928 
L 1578 3381 
L 1028 3381 
L 1028 0 
L 1609 0 
L 1609 2169 
Q 1666 2325 1752 2451 
Q 1838 2578 1953 2666 
Q 2081 2766 2253 2817 
Q 2425 2869 2638 2869 
Q 2803 2869 2954 2851 
Q 3106 2834 3275 2797 
L 3353 3363 
Q 3266 3400 3092 3422 
Q 2919 3444 2759 3444 
z
" transform="scale(0.015625)"/>
       <path id="RobotoMonoNFM-Rg-6b" d="M 1556 1578 
L 2797 0 
L 3531 0 
L 1953 1972 
L 3322 3381 
L 2619 3381 
L 1509 2269 
L 1131 1863 
L 1131 4800 
L 550 4800 
L 550 0 
L 1131 0 
L 1131 1169 
L 1556 1578 
z
" transform="scale(0.015625)"/>
       <path id="RobotoMonoNFM-Rg-20" transform="scale(0.015625)"/>
       <path id="RobotoMonoNFM-Rg-45" d="M 3047 2103 
L 3047 2594 
L 1147 2594 
L 1147 4056 
L 3334 4056 
L 3334 4550 
L 569 4550 
L 569 0 
L 3363 0 
L 3363 491 
L 1147 491 
L 1147 2103 
L 3047 2103 
z
" transform="scale(0.015625)"/>
       <path id="RobotoMonoNFM-Rg-76" d="M 1697 0 
L 2138 0 
L 3516 3381 
L 2925 3381 
L 1978 831 
L 1922 622 
L 1869 831 
L 900 3381 
L 306 3381 
L 1697 0 
z
" transform="scale(0.015625)"/>
       <path id="RobotoMonoNFM-Rg-6e" d="M 544 0 
L 1122 0 
L 1122 2425 
Q 1181 2534 1261 2625 
Q 1341 2716 1434 2784 
Q 1550 2863 1687 2908 
Q 1825 2953 1984 2953 
Q 2169 2953 2311 2909 
Q 2453 2866 2553 2769 
Q 2650 2672 2700 2515 
Q 2750 2359 2750 2134 
L 2750 0 
L 3328 0 
L 3328 2147 
Q 3328 2484 3245 2729 
Q 3163 2975 3009 3134 
Q 2856 3294 2639 3369 
Q 2422 3444 2156 3444 
Q 1959 3441 1782 3386 
Q 1606 3331 1456 3231 
Q 1356 3166 1267 3077 
Q 1178 2988 1103 2881 
L 1063 3381 
L 544 3381 
L 544 0 
z
" transform="scale(0.015625)"/>
      </defs>
      <use xlink:href="#RobotoMonoNFM-Rg-53"/>
      <use xlink:href="#RobotoMonoNFM-Rg-74" x="60.009766"/>
      <use xlink:href="#RobotoMonoNFM-Rg-72" x="120.019531"/>
      <use xlink:href="#RobotoMonoNFM-Rg-6f" x="180.029297"/>
      <use xlink:href="#RobotoMonoNFM-Rg-6b" x="240.039062"/>
      <use xlink:href="#RobotoMonoNFM-Rg-65" x="300.048828"/>
      <use xlink:href="#RobotoMonoNFM-Rg-20" x="360.058594"/>
      <use xlink:href="#RobotoMonoNFM-Rg-45" x="420.068359"/>
      <use xlink:href="#RobotoMonoNFM-Rg-76" x="480.078125"/>
      <use xlink:href="#RobotoMonoNFM-Rg-65" x="540.087891"/>
      <use xlink:href="#RobotoMonoNFM-Rg-6e" x="600.097656"/>
      <use xlink:href="#RobotoMonoNFM-Rg-74" x="660.107422"/>
     </g>
    </g>
   </g>
   <g id="matplotlib.axis_2">
    <g id="ytick_1">
     <g id="line2d_21">
      <path d="M 81.775 639.06 
L 684.475 639.06 
" clip-path="url(#pf7d29f3128)" style="fill: none; stroke-dasharray: 2.96,1.28; stroke-dashoffset: 0; stroke: #cccccc; stroke-opacity: 0.4; stroke-width: 0.8"/>
     </g>
     <g id="line2d_22">
      <defs>
       <path id="md37eef6fac" d="M 0 0 
L 8 0 
" style="stroke: #262626; stroke-width: 1.25"/>
      </defs>
      <g>
       <use xlink:href="#md37eef6fac" x="81.775" y="639.06" style="fill: #262626; stroke: #262626; stroke-width: 1.25"/>
      </g>
     </g>
     <g id="text_4">
      <!-- 0 -->
      <g style="fill: #262626" transform="translate(66.271875 646.56) scale(0.2 -0.2)">
       <defs>
        <path id="RobotoMonoNFM-Rg-30" d="M 3400 1741 
L 3400 2806 
Q 3400 3241 3300 3577 
Q 3200 3913 3013 4144 
Q 2822 4375 2548 4495 
Q 2275 4616 1925 4616 
Q 1578 4616 1304 4495 
Q 1031 4375 844 4144 
Q 653 3913 553 3577 
Q 453 3241 453 2806 
L 453 1741 
Q 453 1306 553 970 
Q 653 634 844 406 
Q 1034 172 1309 54 
Q 1584 -63 1931 -63 
Q 2281 -63 2553 56 
Q 2825 175 3013 406 
Q 3200 634 3300 970 
Q 3400 1306 3400 1741 
z
M 1034 1856 
Q 1034 1938 1034 2016 
Q 1034 2094 1034 2172 
L 1034 2934 
Q 1034 3253 1098 3495 
Q 1163 3738 1294 3891 
Q 1403 4013 1561 4077 
Q 1719 4141 1925 4141 
Q 2128 4141 2283 4081 
Q 2438 4022 2544 3903 
Q 2653 3788 2717 3614 
Q 2781 3441 2806 3216 
L 1034 1856 
z
M 2819 1619 
Q 2819 1284 2751 1037 
Q 2684 791 2541 638 
Q 2434 525 2281 465 
Q 2128 406 1931 406 
Q 1744 406 1594 461 
Q 1444 516 1338 622 
Q 1222 734 1150 907 
Q 1078 1081 1050 1309 
L 2819 2663 
Q 2819 2575 2819 2442 
Q 2819 2309 2819 2263 
L 2819 1619 
z
" transform="scale(0.015625)"/>
       </defs>
       <use xlink:href="#RobotoMonoNFM-Rg-30"/>
      </g>
     </g>
    </g>
    <g id="ytick_2">
     <g id="line2d_23">
      <path d="M 81.775 561.771093 
L 684.475 561.771093 
" clip-path="url(#pf7d29f3128)" style="fill: none; stroke-dasharray: 2.96,1.28; stroke-dashoffset: 0; stroke: #cccccc; stroke-opacity: 0.4; stroke-width: 0.8"/>
     </g>
     <g id="line2d_24">
      <g>
       <use xlink:href="#md37eef6fac" x="81.775" y="561.771093" style="fill: #262626; stroke: #262626; stroke-width: 1.25"/>
      </g>
     </g>
     <g id="text_5">
      <!-- 500 -->
      <g style="fill: #262626" transform="translate(42.265625 569.271093) scale(0.2 -0.2)">
       <defs>
        <path id="RobotoMonoNFM-Rg-35" d="M 750 2281 
L 1213 2163 
Q 1291 2231 1364 2284 
Q 1438 2338 1522 2375 
Q 1606 2413 1711 2433 
Q 1816 2453 1959 2453 
Q 2178 2453 2347 2375 
Q 2516 2297 2631 2163 
Q 2747 2025 2808 1840 
Q 2869 1656 2869 1444 
Q 2869 1209 2814 1018 
Q 2759 828 2653 694 
Q 2544 556 2384 482 
Q 2225 409 2019 409 
Q 1653 409 1420 609 
Q 1188 809 1134 1197 
L 584 1197 
Q 616 881 739 643 
Q 863 406 1056 250 
Q 1247 94 1494 15 
Q 1741 -63 2019 -63 
Q 2381 -63 2650 51 
Q 2919 166 3097 369 
Q 3272 569 3359 847 
Q 3447 1125 3447 1450 
Q 3447 1794 3353 2075 
Q 3259 2356 3084 2556 
Q 2909 2753 2659 2862 
Q 2409 2972 2094 2972 
Q 1847 2972 1659 2912 
Q 1472 2853 1338 2775 
L 1466 3988 
L 3313 3988 
L 3313 4550 
L 978 4550 
L 750 2281 
z
" transform="scale(0.015625)"/>
       </defs>
       <use xlink:href="#RobotoMonoNFM-Rg-35"/>
       <use xlink:href="#RobotoMonoNFM-Rg-30" x="60.009766"/>
       <use xlink:href="#RobotoMonoNFM-Rg-30" x="120.019531"/>
      </g>
     </g>
    </g>
    <g id="ytick_3">
     <g id="line2d_25">
      <path d="M 81.775 484.482186 
L 684.475 484.482186 
" clip-path="url(#pf7d29f3128)" style="fill: none; stroke-dasharray: 2.96,1.28; stroke-dashoffset: 0; stroke: #cccccc; stroke-opacity: 0.4; stroke-width: 0.8"/>
     </g>
     <g id="line2d_26">
      <g>
       <use xlink:href="#md37eef6fac" x="81.775" y="484.482186" style="fill: #262626; stroke: #262626; stroke-width: 1.25"/>
      </g>
     </g>
     <g id="text_6">
      <!-- 1000 -->
      <g style="fill: #262626" transform="translate(30.2625 491.982186) scale(0.2 -0.2)">
       <defs>
        <path id="RobotoMonoNFM-Rg-31" d="M 2419 0 
L 2419 4550 
L 2372 4550 
L 650 3888 
L 650 3359 
L 1841 3813 
L 1841 0 
L 2419 0 
z
" transform="scale(0.015625)"/>
       </defs>
       <use xlink:href="#RobotoMonoNFM-Rg-31"/>
       <use xlink:href="#RobotoMonoNFM-Rg-30" x="60.009766"/>
       <use xlink:href="#RobotoMonoNFM-Rg-30" x="120.019531"/>
       <use xlink:href="#RobotoMonoNFM-Rg-30" x="180.029297"/>
      </g>
     </g>
    </g>
    <g id="ytick_4">
     <g id="line2d_27">
      <path d="M 81.775 407.19328 
L 684.475 407.19328 
" clip-path="url(#pf7d29f3128)" style="fill: none; stroke-dasharray: 2.96,1.28; stroke-dashoffset: 0; stroke: #cccccc; stroke-opacity: 0.4; stroke-width: 0.8"/>
     </g>
     <g id="line2d_28">
      <g>
       <use xlink:href="#md37eef6fac" x="81.775" y="407.19328" style="fill: #262626; stroke: #262626; stroke-width: 1.25"/>
      </g>
     </g>
     <g id="text_7">
      <!-- 1500 -->
      <g style="fill: #262626" transform="translate(30.2625 414.69328) scale(0.2 -0.2)">
       <use xlink:href="#RobotoMonoNFM-Rg-31"/>
       <use xlink:href="#RobotoMonoNFM-Rg-35" x="60.009766"/>
       <use xlink:href="#RobotoMonoNFM-Rg-30" x="120.019531"/>
       <use xlink:href="#RobotoMonoNFM-Rg-30" x="180.029297"/>
      </g>
     </g>
    </g>
    <g id="ytick_5">
     <g id="line2d_29">
      <path d="M 81.775 329.904373 
L 684.475 329.904373 
" clip-path="url(#pf7d29f3128)" style="fill: none; stroke-dasharray: 2.96,1.28; stroke-dashoffset: 0; stroke: #cccccc; stroke-opacity: 0.4; stroke-width: 0.8"/>
     </g>
     <g id="line2d_30">
      <g>
       <use xlink:href="#md37eef6fac" x="81.775" y="329.904373" style="fill: #262626; stroke: #262626; stroke-width: 1.25"/>
      </g>
     </g>
     <g id="text_8">
      <!-- 2000 -->
      <g style="fill: #262626" transform="translate(30.2625 337.404373) scale(0.2 -0.2)">
       <defs>
        <path id="RobotoMonoNFM-Rg-32" d="M 3334 0 
L 3334 472 
L 1050 472 
L 2272 1797 
Q 2444 1984 2598 2173 
Q 2753 2363 2872 2556 
Q 2988 2750 3056 2948 
Q 3125 3147 3125 3350 
Q 3125 3622 3029 3853 
Q 2934 4084 2756 4253 
Q 2578 4422 2320 4517 
Q 2063 4613 1741 4613 
Q 1391 4613 1117 4500 
Q 844 4388 656 4197 
Q 466 4006 366 3751 
Q 266 3497 266 3209 
L 847 3209 
Q 847 3422 901 3594 
Q 956 3766 1069 3888 
Q 1178 4006 1345 4072 
Q 1513 4138 1741 4138 
Q 1928 4138 2076 4073 
Q 2225 4009 2331 3900 
Q 2434 3791 2489 3642 
Q 2544 3494 2544 3325 
Q 2544 3188 2509 3058 
Q 2475 2928 2394 2784 
Q 2313 2638 2178 2466 
Q 2044 2294 1844 2072 
L 353 416 
L 353 0 
L 3334 0 
z
" transform="scale(0.015625)"/>
       </defs>
       <use xlink:href="#RobotoMonoNFM-Rg-32"/>
       <use xlink:href="#RobotoMonoNFM-Rg-30" x="60.009766"/>
       <use xlink:href="#RobotoMonoNFM-Rg-30" x="120.019531"/>
       <use xlink:href="#RobotoMonoNFM-Rg-30" x="180.029297"/>
      </g>
     </g>
    </g>
    <g id="ytick_6">
     <g id="line2d_31">
      <path d="M 81.775 252.615466 
L 684.475 252.615466 
" clip-path="url(#pf7d29f3128)" style="fill: none; stroke-dasharray: 2.96,1.28; stroke-dashoffset: 0; stroke: #cccccc; stroke-opacity: 0.4; stroke-width: 0.8"/>
     </g>
     <g id="line2d_32">
      <g>
       <use xlink:href="#md37eef6fac" x="81.775" y="252.615466" style="fill: #262626; stroke: #262626; stroke-width: 1.25"/>
      </g>
     </g>
     <g id="text_9">
      <!-- 2500 -->
      <g style="fill: #262626" transform="translate(30.2625 260.115466) scale(0.2 -0.2)">
       <use xlink:href="#RobotoMonoNFM-Rg-32"/>
       <use xlink:href="#RobotoMonoNFM-Rg-35" x="60.009766"/>
       <use xlink:href="#RobotoMonoNFM-Rg-30" x="120.019531"/>
       <use xlink:href="#RobotoMonoNFM-Rg-30" x="180.029297"/>
      </g>
     </g>
    </g>
    <g id="ytick_7">
     <g id="line2d_33">
      <path d="M 81.775 175.326559 
L 684.475 175.326559 
" clip-path="url(#pf7d29f3128)" style="fill: none; stroke-dasharray: 2.96,1.28; stroke-dashoffset: 0; stroke: #cccccc; stroke-opacity: 0.4; stroke-width: 0.8"/>
     </g>
     <g id="line2d_34">
      <g>
       <use xlink:href="#md37eef6fac" x="81.775" y="175.326559" style="fill: #262626; stroke: #262626; stroke-width: 1.25"/>
      </g>
     </g>
     <g id="text_10">
      <!-- 3000 -->
      <g style="fill: #262626" transform="translate(30.2625 182.826559) scale(0.2 -0.2)">
       <defs>
        <path id="RobotoMonoNFM-Rg-33" d="M 1219 2553 
L 1219 2084 
L 1631 2084 
Q 1847 2084 2026 2034 
Q 2206 1984 2334 1881 
Q 2459 1778 2529 1623 
Q 2600 1469 2600 1256 
Q 2600 1041 2539 883 
Q 2478 725 2366 619 
Q 2253 513 2093 461 
Q 1934 409 1738 409 
Q 1541 409 1380 465 
Q 1219 522 1106 625 
Q 994 728 933 875 
Q 872 1022 872 1200 
L 294 1200 
Q 294 900 408 665 
Q 522 431 716 269 
Q 909 106 1173 21 
Q 1438 -63 1738 -63 
Q 2044 -63 2308 26 
Q 2572 116 2766 288 
Q 2959 456 3068 703 
Q 3178 950 3178 1269 
Q 3178 1425 3142 1584 
Q 3106 1744 3019 1888 
Q 2928 2031 2779 2147 
Q 2631 2263 2409 2334 
Q 2594 2413 2726 2530 
Q 2859 2647 2944 2781 
Q 3028 2913 3068 3053 
Q 3109 3194 3109 3325 
Q 3109 3641 3009 3881 
Q 2909 4122 2728 4284 
Q 2547 4447 2294 4530 
Q 2041 4613 1734 4613 
Q 1419 4613 1161 4514 
Q 903 4416 719 4247 
Q 534 4075 432 3845 
Q 331 3616 331 3356 
L 913 3356 
Q 913 3534 972 3678 
Q 1031 3822 1141 3925 
Q 1247 4028 1398 4083 
Q 1550 4138 1734 4138 
Q 1925 4138 2073 4089 
Q 2222 4041 2322 3944 
Q 2425 3844 2478 3692 
Q 2531 3541 2531 3338 
Q 2531 3166 2472 3022 
Q 2413 2878 2300 2775 
Q 2184 2672 2017 2612 
Q 1850 2553 1631 2553 
L 1219 2553 
z
" transform="scale(0.015625)"/>
       </defs>
       <use xlink:href="#RobotoMonoNFM-Rg-33"/>
       <use xlink:href="#RobotoMonoNFM-Rg-30" x="60.009766"/>
       <use xlink:href="#RobotoMonoNFM-Rg-30" x="120.019531"/>
       <use xlink:href="#RobotoMonoNFM-Rg-30" x="180.029297"/>
      </g>
     </g>
    </g>
    <g id="ytick_8">
     <g id="line2d_35">
      <path d="M 81.775 98.037652 
L 684.475 98.037652 
" clip-path="url(#pf7d29f3128)" style="fill: none; stroke-dasharray: 2.96,1.28; stroke-dashoffset: 0; stroke: #cccccc; stroke-opacity: 0.4; stroke-width: 0.8"/>
     </g>
     <g id="line2d_36">
      <g>
       <use xlink:href="#md37eef6fac" x="81.775" y="98.037652" style="fill: #262626; stroke: #262626; stroke-width: 1.25"/>
      </g>
     </g>
     <g id="text_11">
      <!-- 3500 -->
      <g style="fill: #262626" transform="translate(30.2625 105.537652) scale(0.2 -0.2)">
       <use xlink:href="#RobotoMonoNFM-Rg-33"/>
       <use xlink:href="#RobotoMonoNFM-Rg-35" x="60.009766"/>
       <use xlink:href="#RobotoMonoNFM-Rg-30" x="120.019531"/>
       <use xlink:href="#RobotoMonoNFM-Rg-30" x="180.029297"/>
      </g>
     </g>
    </g>
    <g id="ytick_9">
     <g id="line2d_37">
      <path d="M 81.775 20.748745 
L 684.475 20.748745 
" clip-path="url(#pf7d29f3128)" style="fill: none; stroke-dasharray: 2.96,1.28; stroke-dashoffset: 0; stroke: #cccccc; stroke-opacity: 0.4; stroke-width: 0.8"/>
     </g>
     <g id="line2d_38">
      <g>
       <use xlink:href="#md37eef6fac" x="81.775" y="20.748745" style="fill: #262626; stroke: #262626; stroke-width: 1.25"/>
      </g>
     </g>
     <g id="text_12">
      <!-- 4000 -->
      <g style="fill: #262626" transform="translate(30.2625 28.248745) scale(0.2 -0.2)">
       <defs>
        <path id="RobotoMonoNFM-Rg-34" d="M 2888 1528 
L 2888 4550 
L 2272 4550 
L 234 1397 
L 234 1056 
L 2309 1056 
L 2309 0 
L 2888 0 
L 2888 1056 
L 3522 1056 
L 3522 1528 
L 2888 1528 
z
M 875 1528 
L 2216 3606 
L 2309 3781 
L 2309 1528 
L 875 1528 
z
" transform="scale(0.015625)"/>
       </defs>
       <use xlink:href="#RobotoMonoNFM-Rg-34"/>
       <use xlink:href="#RobotoMonoNFM-Rg-30" x="60.009766"/>
       <use xlink:href="#RobotoMonoNFM-Rg-30" x="120.019531"/>
       <use xlink:href="#RobotoMonoNFM-Rg-30" x="180.029297"/>
      </g>
     </g>
    </g>
    <g id="ytick_10">
     <g id="line2d_39">
      <path d="M 81.775 623.602219 
L 684.475 623.602219 
" clip-path="url(#pf7d29f3128)" style="fill: none; stroke-dasharray: 0.5,0.825; stroke-dashoffset: 0; stroke: #cccccc; stroke-opacity: 0.3; stroke-width: 0.5"/>
     </g>
     <g id="line2d_40">
      <defs>
       <path id="m10ba9565ab" d="M 0 0 
L 4 0 
" style="stroke: #262626"/>
      </defs>
      <g>
       <use xlink:href="#m10ba9565ab" x="81.775" y="623.602219" style="fill: #262626; stroke: #262626"/>
      </g>
     </g>
    </g>
    <g id="ytick_11">
     <g id="line2d_41">
      <path d="M 81.775 608.144437 
L 684.475 608.144437 
" clip-path="url(#pf7d29f3128)" style="fill: none; stroke-dasharray: 0.5,0.825; stroke-dashoffset: 0; stroke: #cccccc; stroke-opacity: 0.3; stroke-width: 0.5"/>
     </g>
     <g id="line2d_42">
      <g>
       <use xlink:href="#m10ba9565ab" x="81.775" y="608.144437" style="fill: #262626; stroke: #262626"/>
      </g>
     </g>
    </g>
    <g id="ytick_12">
     <g id="line2d_43">
      <path d="M 81.775 592.686656 
L 684.475 592.686656 
" clip-path="url(#pf7d29f3128)" style="fill: none; stroke-dasharray: 0.5,0.825; stroke-dashoffset: 0; stroke: #cccccc; stroke-opacity: 0.3; stroke-width: 0.5"/>
     </g>
     <g id="line2d_44">
      <g>
       <use xlink:href="#m10ba9565ab" x="81.775" y="592.686656" style="fill: #262626; stroke: #262626"/>
      </g>
     </g>
    </g>
    <g id="ytick_13">
     <g id="line2d_45">
      <path d="M 81.775 577.228875 
L 684.475 577.228875 
" clip-path="url(#pf7d29f3128)" style="fill: none; stroke-dasharray: 0.5,0.825; stroke-dashoffset: 0; stroke: #cccccc; stroke-opacity: 0.3; stroke-width: 0.5"/>
     </g>
     <g id="line2d_46">
      <g>
       <use xlink:href="#m10ba9565ab" x="81.775" y="577.228875" style="fill: #262626; stroke: #262626"/>
      </g>
     </g>
    </g>
    <g id="ytick_14">
     <g id="line2d_47">
      <path d="M 81.775 546.313312 
L 684.475 546.313312 
" clip-path="url(#pf7d29f3128)" style="fill: none; stroke-dasharray: 0.5,0.825; stroke-dashoffset: 0; stroke: #cccccc; stroke-opacity: 0.3; stroke-width: 0.5"/>
     </g>
     <g id="line2d_48">
      <g>
       <use xlink:href="#m10ba9565ab" x="81.775" y="546.313312" style="fill: #262626; stroke: #262626"/>
      </g>
     </g>
    </g>
    <g id="ytick_15">
     <g id="line2d_49">
      <path d="M 81.775 530.85553 
L 684.475 530.85553 
" clip-path="url(#pf7d29f3128)" style="fill: none; stroke-dasharray: 0.5,0.825; stroke-dashoffset: 0; stroke: #cccccc; stroke-opacity: 0.3; stroke-width: 0.5"/>
     </g>
     <g id="line2d_50">
      <g>
       <use xlink:href="#m10ba9565ab" x="81.775" y="530.85553" style="fill: #262626; stroke: #262626"/>
      </g>
     </g>
    </g>
    <g id="ytick_16">
     <g id="line2d_51">
      <path d="M 81.775 515.397749 
L 684.475 515.397749 
" clip-path="url(#pf7d29f3128)" style="fill: none; stroke-dasharray: 0.5,0.825; stroke-dashoffset: 0; stroke: #cccccc; stroke-opacity: 0.3; stroke-width: 0.5"/>
     </g>
     <g id="line2d_52">
      <g>
       <use xlink:href="#m10ba9565ab" x="81.775" y="515.397749" style="fill: #262626; stroke: #262626"/>
      </g>
     </g>
    </g>
    <g id="ytick_17">
     <g id="line2d_53">
      <path d="M 81.775 499.939968 
L 684.475 499.939968 
" clip-path="url(#pf7d29f3128)" style="fill: none; stroke-dasharray: 0.5,0.825; stroke-dashoffset: 0; stroke: #cccccc; stroke-opacity: 0.3; stroke-width: 0.5"/>
     </g>
     <g id="line2d_54">
      <g>
       <use xlink:href="#m10ba9565ab" x="81.775" y="499.939968" style="fill: #262626; stroke: #262626"/>
      </g>
     </g>
    </g>
    <g id="ytick_18">
     <g id="line2d_55">
      <path d="M 81.775 469.024405 
L 684.475 469.024405 
" clip-path="url(#pf7d29f3128)" style="fill: none; stroke-dasharray: 0.5,0.825; stroke-dashoffset: 0; stroke: #cccccc; stroke-opacity: 0.3; stroke-width: 0.5"/>
     </g>
     <g id="line2d_56">
      <g>
       <use xlink:href="#m10ba9565ab" x="81.775" y="469.024405" style="fill: #262626; stroke: #262626"/>
      </g>
     </g>
    </g>
    <g id="ytick_19">
     <g id="line2d_57">
      <path d="M 81.775 453.566624 
L 684.475 453.566624 
" clip-path="url(#pf7d29f3128)" style="fill: none; stroke-dasharray: 0.5,0.825; stroke-dashoffset: 0; stroke: #cccccc; stroke-opacity: 0.3; stroke-width: 0.5"/>
     </g>
     <g id="line2d_58">
      <g>
       <use xlink:href="#m10ba9565ab" x="81.775" y="453.566624" style="fill: #262626; stroke: #262626"/>
      </g>
     </g>
    </g>
    <g id="ytick_20">
     <g id="line2d_59">
      <path d="M 81.775 438.108842 
L 684.475 438.108842 
" clip-path="url(#pf7d29f3128)" style="fill: none; stroke-dasharray: 0.5,0.825; stroke-dashoffset: 0; stroke: #cccccc; stroke-opacity: 0.3; stroke-width: 0.5"/>
     </g>
     <g id="line2d_60">
      <g>
       <use xlink:href="#m10ba9565ab" x="81.775" y="438.108842" style="fill: #262626; stroke: #262626"/>
      </g>
     </g>
    </g>
    <g id="ytick_21">
     <g id="line2d_61">
      <path d="M 81.775 422.651061 
L 684.475 422.651061 
" clip-path="url(#pf7d29f3128)" style="fill: none; stroke-dasharray: 0.5,0.825; stroke-dashoffset: 0; stroke: #cccccc; stroke-opacity: 0.3; stroke-width: 0.5"/>
     </g>
     <g id="line2d_62">
      <g>
       <use xlink:href="#m10ba9565ab" x="81.775" y="422.651061" style="fill: #262626; stroke: #262626"/>
      </g>
     </g>
    </g>
    <g id="ytick_22">
     <g id="line2d_63">
      <path d="M 81.775 391.735498 
L 684.475 391.735498 
" clip-path="url(#pf7d29f3128)" style="fill: none; stroke-dasharray: 0.5,0.825; stroke-dashoffset: 0; stroke: #cccccc; stroke-opacity: 0.3; stroke-width: 0.5"/>
     </g>
     <g id="line2d_64">
      <g>
       <use xlink:href="#m10ba9565ab" x="81.775" y="391.735498" style="fill: #262626; stroke: #262626"/>
      </g>
     </g>
    </g>
    <g id="ytick_23">
     <g id="line2d_65">
      <path d="M 81.775 376.277717 
L 684.475 376.277717 
" clip-path="url(#pf7d29f3128)" style="fill: none; stroke-dasharray: 0.5,0.825; stroke-dashoffset: 0; stroke: #cccccc; stroke-opacity: 0.3; stroke-width: 0.5"/>
     </g>
     <g id="line2d_66">
      <g>
       <use xlink:href="#m10ba9565ab" x="81.775" y="376.277717" style="fill: #262626; stroke: #262626"/>
      </g>
     </g>
    </g>
    <g id="ytick_24">
     <g id="line2d_67">
      <path d="M 81.775 360.819935 
L 684.475 360.819935 
" clip-path="url(#pf7d29f3128)" style="fill: none; stroke-dasharray: 0.5,0.825; stroke-dashoffset: 0; stroke: #cccccc; stroke-opacity: 0.3; stroke-width: 0.5"/>
     </g>
     <g id="line2d_68">
      <g>
       <use xlink:href="#m10ba9565ab" x="81.775" y="360.819935" style="fill: #262626; stroke: #262626"/>
      </g>
     </g>
    </g>
    <g id="ytick_25">
     <g id="line2d_69">
      <path d="M 81.775 345.362154 
L 684.475 345.362154 
" clip-path="url(#pf7d29f3128)" style="fill: none; stroke-dasharray: 0.5,0.825; stroke-dashoffset: 0; stroke: #cccccc; stroke-opacity: 0.3; stroke-width: 0.5"/>
     </g>
     <g id="line2d_70">
      <g>
       <use xlink:href="#m10ba9565ab" x="81.775" y="345.362154" style="fill: #262626; stroke: #262626"/>
      </g>
     </g>
    </g>
    <g id="ytick_26">
     <g id="line2d_71">
      <path d="M 81.775 314.446591 
L 684.475 314.446591 
" clip-path="url(#pf7d29f3128)" style="fill: none; stroke-dasharray: 0.5,0.825; stroke-dashoffset: 0; stroke: #cccccc; stroke-opacity: 0.3; stroke-width: 0.5"/>
     </g>
     <g id="line2d_72">
      <g>
       <use xlink:href="#m10ba9565ab" x="81.775" y="314.446591" style="fill: #262626; stroke: #262626"/>
      </g>
     </g>
    </g>
    <g id="ytick_27">
     <g id="line2d_73">
      <path d="M 81.775 298.98881 
L 684.475 298.98881 
" clip-path="url(#pf7d29f3128)" style="fill: none; stroke-dasharray: 0.5,0.825; stroke-dashoffset: 0; stroke: #cccccc; stroke-opacity: 0.3; stroke-width: 0.5"/>
     </g>
     <g id="line2d_74">
      <g>
       <use xlink:href="#m10ba9565ab" x="81.775" y="298.98881" style="fill: #262626; stroke: #262626"/>
      </g>
     </g>
    </g>
    <g id="ytick_28">
     <g id="line2d_75">
      <path d="M 81.775 283.531029 
L 684.475 283.531029 
" clip-path="url(#pf7d29f3128)" style="fill: none; stroke-dasharray: 0.5,0.825; stroke-dashoffset: 0; stroke: #cccccc; stroke-opacity: 0.3; stroke-width: 0.5"/>
     </g>
     <g id="line2d_76">
      <g>
       <use xlink:href="#m10ba9565ab" x="81.775" y="283.531029" style="fill: #262626; stroke: #262626"/>
      </g>
     </g>
    </g>
    <g id="ytick_29">
     <g id="line2d_77">
      <path d="M 81.775 268.073247 
L 684.475 268.073247 
" clip-path="url(#pf7d29f3128)" style="fill: none; stroke-dasharray: 0.5,0.825; stroke-dashoffset: 0; stroke: #cccccc; stroke-opacity: 0.3; stroke-width: 0.5"/>
     </g>
     <g id="line2d_78">
      <g>
       <use xlink:href="#m10ba9565ab" x="81.775" y="268.073247" style="fill: #262626; stroke: #262626"/>
      </g>
     </g>
    </g>
    <g id="ytick_30">
     <g id="line2d_79">
      <path d="M 81.775 237.157684 
L 684.475 237.157684 
" clip-path="url(#pf7d29f3128)" style="fill: none; stroke-dasharray: 0.5,0.825; stroke-dashoffset: 0; stroke: #cccccc; stroke-opacity: 0.3; stroke-width: 0.5"/>
     </g>
     <g id="line2d_80">
      <g>
       <use xlink:href="#m10ba9565ab" x="81.775" y="237.157684" style="fill: #262626; stroke: #262626"/>
      </g>
     </g>
    </g>
    <g id="ytick_31">
     <g id="line2d_81">
      <path d="M 81.775 221.699903 
L 684.475 221.699903 
" clip-path="url(#pf7d29f3128)" style="fill: none; stroke-dasharray: 0.5,0.825; stroke-dashoffset: 0; stroke: #cccccc; stroke-opacity: 0.3; stroke-width: 0.5"/>
     </g>
     <g id="line2d_82">
      <g>
       <use xlink:href="#m10ba9565ab" x="81.775" y="221.699903" style="fill: #262626; stroke: #262626"/>
      </g>
     </g>
    </g>
    <g id="ytick_32">
     <g id="line2d_83">
      <path d="M 81.775 206.242122 
L 684.475 206.242122 
" clip-path="url(#pf7d29f3128)" style="fill: none; stroke-dasharray: 0.5,0.825; stroke-dashoffset: 0; stroke: #cccccc; stroke-opacity: 0.3; stroke-width: 0.5"/>
     </g>
     <g id="line2d_84">
      <g>
       <use xlink:href="#m10ba9565ab" x="81.775" y="206.242122" style="fill: #262626; stroke: #262626"/>
      </g>
     </g>
    </g>
    <g id="ytick_33">
     <g id="line2d_85">
      <path d="M 81.775 190.78434 
L 684.475 190.78434 
" clip-path="url(#pf7d29f3128)" style="fill: none; stroke-dasharray: 0.5,0.825; stroke-dashoffset: 0; stroke: #cccccc; stroke-opacity: 0.3; stroke-width: 0.5"/>
     </g>
     <g id="line2d_86">
      <g>
       <use xlink:href="#m10ba9565ab" x="81.775" y="190.78434" style="fill: #262626; stroke: #262626"/>
      </g>
     </g>
    </g>
    <g id="ytick_34">
     <g id="line2d_87">
      <path d="M 81.775 159.868778 
L 684.475 159.868778 
" clip-path="url(#pf7d29f3128)" style="fill: none; stroke-dasharray: 0.5,0.825; stroke-dashoffset: 0; stroke: #cccccc; stroke-opacity: 0.3; stroke-width: 0.5"/>
     </g>
     <g id="line2d_88">
      <g>
       <use xlink:href="#m10ba9565ab" x="81.775" y="159.868778" style="fill: #262626; stroke: #262626"/>
      </g>
     </g>
    </g>
    <g id="ytick_35">
     <g id="line2d_89">
      <path d="M 81.775 144.410996 
L 684.475 144.410996 
" clip-path="url(#pf7d29f3128)" style="fill: none; stroke-dasharray: 0.5,0.825; stroke-dashoffset: 0; stroke: #cccccc; stroke-opacity: 0.3; stroke-width: 0.5"/>
     </g>
     <g id="line2d_90">
      <g>
       <use xlink:href="#m10ba9565ab" x="81.775" y="144.410996" style="fill: #262626; stroke: #262626"/>
      </g>
     </g>
    </g>
    <g id="ytick_36">
     <g id="line2d_91">
      <path d="M 81.775 128.953215 
L 684.475 128.953215 
" clip-path="url(#pf7d29f3128)" style="fill: none; stroke-dasharray: 0.5,0.825; stroke-dashoffset: 0; stroke: #cccccc; stroke-opacity: 0.3; stroke-width: 0.5"/>
     </g>
     <g id="line2d_92">
      <g>
       <use xlink:href="#m10ba9565ab" x="81.775" y="128.953215" style="fill: #262626; stroke: #262626"/>
      </g>
     </g>
    </g>
    <g id="ytick_37">
     <g id="line2d_93">
      <path d="M 81.775 113.495434 
L 684.475 113.495434 
" clip-path="url(#pf7d29f3128)" style="fill: none; stroke-dasharray: 0.5,0.825; stroke-dashoffset: 0; stroke: #cccccc; stroke-opacity: 0.3; stroke-width: 0.5"/>
     </g>
     <g id="line2d_94">
      <g>
       <use xlink:href="#m10ba9565ab" x="81.775" y="113.495434" style="fill: #262626; stroke: #262626"/>
      </g>
     </g>
    </g>
    <g id="ytick_38">
     <g id="line2d_95">
      <path d="M 81.775 82.579871 
L 684.475 82.579871 
" clip-path="url(#pf7d29f3128)" style="fill: none; stroke-dasharray: 0.5,0.825; stroke-dashoffset: 0; stroke: #cccccc; stroke-opacity: 0.3; stroke-width: 0.5"/>
     </g>
     <g id="line2d_96">
      <g>
       <use xlink:href="#m10ba9565ab" x="81.775" y="82.579871" style="fill: #262626; stroke: #262626"/>
      </g>
     </g>
    </g>
    <g id="ytick_39">
     <g id="line2d_97">
      <path d="M 81.775 67.122089 
L 684.475 67.122089 
" clip-path="url(#pf7d29f3128)" style="fill: none; stroke-dasharray: 0.5,0.825; stroke-dashoffset: 0; stroke: #cccccc; stroke-opacity: 0.3; stroke-width: 0.5"/>
     </g>
     <g id="line2d_98">
      <g>
       <use xlink:href="#m10ba9565ab" x="81.775" y="67.122089" style="fill: #262626; stroke: #262626"/>
      </g>
     </g>
    </g>
    <g id="ytick_40">
     <g id="line2d_99">
      <path d="M 81.775 51.664308 
L 684.475 51.664308 
" clip-path="url(#pf7d29f3128)" style="fill: none; stroke-dasharray: 0.5,0.825; stroke-dashoffset: 0; stroke: #cccccc; stroke-opacity: 0.3; stroke-width: 0.5"/>
     </g>
     <g id="line2d_100">
      <g>
       <use xlink:href="#m10ba9565ab" x="81.775" y="51.664308" style="fill: #262626; stroke: #262626"/>
      </g>
     </g>
    </g>
    <g id="ytick_41">
     <g id="line2d_101">
      <path d="M 81.775 36.206527 
L 684.475 36.206527 
" clip-path="url(#pf7d29f3128)" style="fill: none; stroke-dasharray: 0.5,0.825; stroke-dashoffset: 0; stroke: #cccccc; stroke-opacity: 0.3; stroke-width: 0.5"/>
     </g>
     <g id="line2d_102">
      <g>
       <use xlink:href="#m10ba9565ab" x="81.775" y="36.206527" style="fill: #262626; stroke: #262626"/>
      </g>
     </g>
    </g>
    <g id="text_13">
     <!-- Count -->
     <g style="fill: #262626" transform="translate(22.2 353.137812) rotate(-90) scale(0.2 -0.2)">
      <defs>
       <path id="RobotoMonoNFM-Rg-43" d="M 3491 1369 
L 2913 1369 
Q 2884 1163 2815 986 
Q 2747 809 2631 681 
Q 2516 550 2348 478 
Q 2181 406 1953 406 
Q 1744 406 1587 473 
Q 1431 541 1316 659 
Q 1200 775 1125 928 
Q 1050 1081 1003 1256 
Q 956 1428 936 1608 
Q 916 1788 916 1956 
L 916 2597 
Q 916 2766 936 2945 
Q 956 3125 1003 3297 
Q 1050 3469 1126 3622 
Q 1203 3775 1319 3891 
Q 1431 4006 1589 4073 
Q 1747 4141 1953 4141 
Q 2181 4141 2348 4064 
Q 2516 3988 2631 3853 
Q 2747 3719 2815 3541 
Q 2884 3363 2913 3156 
L 3491 3156 
Q 3453 3481 3336 3750 
Q 3219 4019 3025 4213 
Q 2831 4403 2562 4508 
Q 2294 4613 1953 4613 
Q 1669 4613 1441 4533 
Q 1213 4453 1034 4313 
Q 853 4172 723 3980 
Q 594 3788 509 3563 
Q 422 3338 380 3091 
Q 338 2844 334 2591 
L 334 1956 
Q 338 1703 380 1456 
Q 422 1209 509 984 
Q 594 759 723 568 
Q 853 378 1034 238 
Q 1213 97 1442 17 
Q 1672 -63 1953 -63 
Q 2281 -63 2548 42 
Q 2816 147 3013 338 
Q 3206 525 3328 789 
Q 3450 1053 3491 1369 
z
" transform="scale(0.015625)"/>
       <path id="RobotoMonoNFM-Rg-75" d="M 2772 0 
L 3297 0 
L 3297 3381 
L 2716 3381 
L 2716 956 
Q 2669 847 2598 755 
Q 2528 663 2434 597 
Q 2322 516 2169 470 
Q 2016 425 1822 425 
Q 1656 425 1529 469 
Q 1403 513 1316 622 
Q 1228 728 1184 909 
Q 1141 1091 1141 1366 
L 1141 3381 
L 563 3381 
L 563 1372 
Q 563 994 645 723 
Q 728 453 881 278 
Q 1034 103 1250 20 
Q 1466 -63 1731 -63 
Q 2063 -63 2316 76 
Q 2569 216 2738 466 
L 2772 0 
z
" transform="scale(0.015625)"/>
      </defs>
      <use xlink:href="#RobotoMonoNFM-Rg-43"/>
      <use xlink:href="#RobotoMonoNFM-Rg-6f" x="60.009766"/>
      <use xlink:href="#RobotoMonoNFM-Rg-75" x="120.019531"/>
      <use xlink:href="#RobotoMonoNFM-Rg-6e" x="180.029297"/>
      <use xlink:href="#RobotoMonoNFM-Rg-74" x="240.039062"/>
     </g>
    </g>
   </g>
   <g id="patch_3">
    <path d="M 111.91 639.06 
L 352.99 639.06 
L 352.99 37.288571 
L 111.91 37.288571 
z
" clip-path="url(#pf7d29f3128)" style="fill: #5875a4; stroke: #ffffff; stroke-linejoin: miter"/>
   </g>
   <g id="patch_4">
    <path d="M 413.26 639.06 
L 654.34 639.06 
L 654.34 608.917326 
L 413.26 608.917326 
z
" clip-path="url(#pf7d29f3128)" style="fill: #5875a4; stroke: #ffffff; stroke-linejoin: miter"/>
   </g>
   <g id="patch_5">
    <path d="M 81.775 639.06 
L 81.775 7.2 
" style="fill: none; stroke: #262626; stroke-width: 1.25; stroke-linejoin: miter; stroke-linecap: square"/>
   </g>
   <g id="patch_6">
    <path d="M 684.475 639.06 
L 684.475 7.2 
" style="fill: none; stroke: #262626; stroke-width: 1.25; stroke-linejoin: miter; stroke-linecap: square"/>
   </g>
   <g id="patch_7">
    <path d="M 81.775 639.06 
L 684.475 639.06 
" style="fill: none; stroke: #262626; stroke-width: 1.25; stroke-linejoin: miter; stroke-linecap: square"/>
   </g>
   <g id="patch_8">
    <path d="M 81.775 7.2 
L 684.475 7.2 
" style="fill: none; stroke: #262626; stroke-width: 1.25; stroke-linejoin: miter; stroke-linecap: square"/>
   </g>
   <g id="text_14">
    <!-- 3893 -->
    <g style="fill: #262626" transform="translate(208.44375 33.226071) scale(0.2 -0.2)">
     <defs>
      <path id="RobotoMonoNFM-Rg-38" d="M 3344 3363 
Q 3344 3659 3241 3892 
Q 3138 4125 2956 4284 
Q 2775 4444 2528 4528 
Q 2281 4613 1994 4613 
Q 1703 4613 1458 4528 
Q 1213 4444 1038 4284 
Q 859 4125 759 3892 
Q 659 3659 659 3363 
Q 659 3194 706 3041 
Q 753 2888 838 2759 
Q 922 2628 1044 2523 
Q 1166 2419 1316 2344 
Q 1141 2269 1000 2156 
Q 859 2044 759 1903 
Q 659 1759 606 1589 
Q 553 1419 553 1228 
Q 553 916 665 675 
Q 778 434 975 272 
Q 1169 106 1433 21 
Q 1697 -63 2003 -63 
Q 2303 -63 2565 23 
Q 2828 109 3025 275 
Q 3219 438 3333 678 
Q 3447 919 3447 1228 
Q 3447 1419 3392 1587 
Q 3338 1756 3238 1900 
Q 3134 2044 2992 2155 
Q 2850 2266 2675 2341 
Q 2775 2391 2862 2453 
Q 2950 2516 3022 2588 
Q 3172 2738 3256 2936 
Q 3341 3134 3344 3363 
z
M 2869 1241 
Q 2869 1044 2805 889 
Q 2741 734 2628 628 
Q 2513 522 2353 465 
Q 2194 409 2003 409 
Q 1803 409 1642 465 
Q 1481 522 1369 628 
Q 1256 734 1195 889 
Q 1134 1044 1134 1241 
Q 1134 1431 1195 1590 
Q 1256 1750 1369 1866 
Q 1481 1978 1640 2040 
Q 1800 2103 1997 2103 
Q 2188 2103 2348 2040 
Q 2509 1978 2625 1866 
Q 2741 1750 2805 1590 
Q 2869 1431 2869 1241 
z
M 2763 3353 
Q 2763 3178 2706 3034 
Q 2650 2891 2550 2791 
Q 2447 2688 2306 2633 
Q 2166 2578 2000 2578 
Q 1831 2578 1692 2633 
Q 1553 2688 1453 2791 
Q 1350 2891 1295 3033 
Q 1241 3175 1241 3353 
Q 1241 3531 1295 3676 
Q 1350 3822 1450 3925 
Q 1550 4028 1687 4083 
Q 1825 4138 1994 4138 
Q 2163 4138 2303 4080 
Q 2444 4022 2547 3919 
Q 2647 3813 2705 3669 
Q 2763 3525 2763 3353 
z
" transform="scale(0.015625)"/>
      <path id="RobotoMonoNFM-Rg-39" d="M 1166 513 
L 1106 513 
L 1106 -3 
L 1166 -3 
Q 1728 -3 2120 151 
Q 2513 306 2734 556 
Q 3103 969 3215 1501 
Q 3328 2034 3328 2563 
L 3328 2772 
Q 3328 3144 3225 3517 
Q 3122 3891 2916 4141 
Q 2741 4353 2483 4483 
Q 2225 4613 1875 4613 
Q 1525 4613 1261 4486 
Q 997 4359 822 4147 
Q 644 3931 555 3645 
Q 466 3359 466 3038 
Q 466 2763 541 2491 
Q 616 2219 775 2003 
Q 934 1788 1179 1655 
Q 1425 1522 1763 1522 
Q 1938 1522 2086 1558 
Q 2234 1594 2356 1656 
Q 2478 1719 2575 1801 
Q 2672 1884 2747 1978 
L 2747 1972 
Q 2731 1684 2656 1415 
Q 2581 1147 2366 913 
Q 2188 722 1895 617 
Q 1603 513 1166 513 
z
M 1856 2000 
Q 1647 2000 1492 2092 
Q 1338 2184 1238 2334 
Q 1134 2484 1084 2676 
Q 1034 2869 1034 3069 
Q 1034 3294 1090 3489 
Q 1147 3684 1256 3828 
Q 1363 3969 1519 4050 
Q 1675 4131 1878 4131 
Q 2056 4131 2214 4043 
Q 2372 3956 2494 3794 
Q 2613 3628 2683 3390 
Q 2753 3153 2753 2850 
L 2753 2663 
Q 2700 2516 2608 2395 
Q 2516 2275 2400 2188 
Q 2281 2097 2142 2048 
Q 2003 2000 1856 2000 
z
" transform="scale(0.015625)"/>
     </defs>
     <use xlink:href="#RobotoMonoNFM-Rg-33"/>
     <use xlink:href="#RobotoMonoNFM-Rg-38" x="60.009766"/>
     <use xlink:href="#RobotoMonoNFM-Rg-39" x="120.019531"/>
     <use xlink:href="#RobotoMonoNFM-Rg-33" x="180.029297"/>
    </g>
   </g>
   <g id="text_15">
    <!-- 195 -->
    <g style="fill: #262626" transform="translate(515.795313 604.854826) scale(0.2 -0.2)">
     <use xlink:href="#RobotoMonoNFM-Rg-31"/>
     <use xlink:href="#RobotoMonoNFM-Rg-39" x="60.009766"/>
     <use xlink:href="#RobotoMonoNFM-Rg-35" x="120.019531"/>
    </g>
   </g>
  </g>
 </g>
 <defs>
  <clipPath id="pf7d29f3128">
   <rect x="81.775" y="7.2" width="602.7" height="631.86"/>
  </clipPath>
 </defs>
</svg>
