<?xml version="1.0" encoding="utf-8" standalone="no"?>
<!DOCTYPE svg PUBLIC "-//W3C//DTD SVG 1.1//EN"
  "http://www.w3.org/Graphics/SVG/1.1/DTD/svg11.dtd">
<svg xmlns:xlink="http://www.w3.org/1999/xlink" width="691.281875pt" height="742.374014pt" viewBox="0 0 691.281875 742.374014" xmlns="http://www.w3.org/2000/svg" version="1.1">
 <metadata>
  <rdf:RDF xmlns:dc="http://purl.org/dc/elements/1.1/" xmlns:cc="http://creativecommons.org/ns#" xmlns:rdf="http://www.w3.org/1999/02/22-rdf-syntax-ns#">
   <cc:Work>
    <dc:type rdf:resource="http://purl.org/dc/dcmitype/StillImage"/>
    <dc:date>2026-04-22T10:40:15.570929</dc:date>
    <dc:format>image/svg+xml</dc:format>
    <dc:creator>
     <cc:Agent>
      <dc:title>Matplotlib v3.9.4, https://matplotlib.org/</dc:title>
     </cc:Agent>
    </dc:creator>
   </cc:Work>
  </rdf:RDF>
 </metadata>
 <defs>
  <style type="text/css">*{stroke-linejoin: round; stroke-linecap: butt}</style>
 </defs>
 <g id="figure_1">
  <g id="patch_1">
   <path d="M 0 742.374014 
L 691.281875 742.374014 
L 691.281875 0 
L 0 0 
z
" style="fill: #ffffff"/>
  </g>
  <g id="axes_1">
   <g id="patch_2">
    <path d="M 69.771875 669.669818 
L 684.081875 669.669818 
L 684.081875 58.33362 
L 69.771875 58.33362 
z
" style="fill: #ffffff"/>
   </g>
   <g id="matplotlib.axis_1">
    <g id="xtick_1">
     <g id="line2d_1">
      <path d="M 223.349375 669.669818 
L 223.349375 58.33362 
" clip-path="url(#p06e5755079)" style="fill: none; stroke-dasharray: 2.96,1.28; stroke-dashoffset: 0; stroke: #cccccc; stroke-opacity: 0.4; stroke-width: 0.8"/>
     </g>
     <g id="line2d_2">
      <defs>
       <path id="m52224f744c" d="M 0 0 
L 0 -8 
" style="stroke: #262626; stroke-width: 1.25"/>
      </defs>
      <g>
       <use xlink:href="#m52224f744c" x="223.349375" y="669.669818" style="fill: #262626; stroke: #262626; stroke-width: 1.25"/>
      </g>
     </g>
     <g id="text_1">
      <!-- No -->
      <g style="fill: #262626" transform="translate(218.728874 700.751402) rotate(-45) scale(0.2 -0.2)">
       <defs>
        <path id="RobotoMonoNFM-Rg-4e" d="M 3394 0 
L 3394 4550 
L 2809 4550 
L 2800 1156 
L 1034 4550 
L 447 4550 
L 447 0 
L 1031 0 
L 1041 3400 
L 2806 0 
L 3394 0 
z
" transform="scale(0.015625)"/>
        <path id="RobotoMonoNFM-Rg-6f" d="M 381 1722 
L 381 1653 
Q 381 1288 487 975 
Q 594 663 794 431 
Q 991 200 1277 68 
Q 1563 -63 1922 -63 
Q 2278 -63 2562 68 
Q 2847 200 3047 431 
Q 3244 663 3350 975 
Q 3456 1288 3456 1653 
L 3456 1722 
Q 3456 2088 3350 2402 
Q 3244 2716 3047 2947 
Q 2847 3178 2561 3311 
Q 2275 3444 1916 3444 
Q 1559 3444 1275 3311 
Q 991 3178 794 2947 
Q 594 2716 487 2402 
Q 381 2088 381 1722 
z
M 959 1653 
L 959 1722 
Q 959 1969 1018 2195 
Q 1078 2422 1200 2594 
Q 1319 2766 1497 2867 
Q 1675 2969 1916 2969 
Q 2156 2969 2336 2867 
Q 2516 2766 2638 2594 
Q 2756 2422 2817 2195 
Q 2878 1969 2878 1722 
L 2878 1653 
Q 2878 1403 2818 1176 
Q 2759 950 2641 778 
Q 2519 606 2339 506 
Q 2159 406 1922 406 
Q 1681 406 1500 506 
Q 1319 606 1200 778 
Q 1078 950 1018 1176 
Q 959 1403 959 1653 
z
" transform="scale(0.015625)"/>
       </defs>
       <use xlink:href="#RobotoMonoNFM-Rg-4e"/>
       <use xlink:href="#RobotoMonoNFM-Rg-6f" x="60.009766"/>
      </g>
     </g>
    </g>
    <g id="xtick_2">
     <g id="line2d_3">
      <path d="M 530.504375 669.669818 
L 530.504375 58.33362 
" clip-path="url(#p06e5755079)" style="fill: none; stroke-dasharray: 2.96,1.28; stroke-dashoffset: 0; stroke: #cccccc; stroke-opacity: 0.4; stroke-width: 0.8"/>
     </g>
     <g id="line2d_4">
      <g>
       <use xlink:href="#m52224f744c" x="530.504375" y="669.669818" style="fill: #262626; stroke: #262626; stroke-width: 1.25"/>
      </g>
     </g>
     <g id="text_2">
      <!-- Yes -->
      <g style="fill: #262626" transform="translate(521.640129 709.238893) rotate(-45) scale(0.2 -0.2)">
       <defs>
        <path id="RobotoMonoNFM-Rg-59" d="M 1884 2266 
L 850 4550 
L 191 4550 
L 1606 1697 
L 1616 0 
L 2153 0 
L 2163 1697 
L 3578 4550 
L 2922 4550 
L 1884 2266 
z
" transform="scale(0.015625)"/>
        <path id="RobotoMonoNFM-Rg-65" d="M 2038 -63 
Q 2531 -63 2867 135 
Q 3203 334 3372 591 
L 3019 866 
Q 2859 659 2618 534 
Q 2378 409 2069 409 
Q 1834 409 1640 496 
Q 1447 584 1309 738 
Q 1175 881 1098 1068 
Q 1022 1256 1000 1503 
L 1000 1525 
L 3416 1525 
L 3416 1784 
Q 3416 2138 3327 2441 
Q 3238 2744 3056 2969 
Q 2875 3191 2601 3317 
Q 2328 3444 1963 3444 
Q 1672 3444 1395 3325 
Q 1119 3206 903 2984 
Q 684 2759 553 2436 
Q 422 2113 422 1703 
L 422 1572 
Q 422 1219 540 919 
Q 659 619 872 400 
Q 1084 181 1382 59 
Q 1681 -63 2038 -63 
z
M 1963 2969 
Q 2184 2969 2345 2887 
Q 2506 2806 2613 2675 
Q 2719 2544 2778 2364 
Q 2838 2184 2838 2028 
L 2838 2000 
L 1019 2000 
Q 1053 2234 1139 2414 
Q 1225 2594 1350 2719 
Q 1475 2841 1631 2905 
Q 1788 2969 1963 2969 
z
" transform="scale(0.015625)"/>
        <path id="RobotoMonoNFM-Rg-73" d="M 2791 897 
Q 2791 816 2759 744 
Q 2728 672 2669 613 
Q 2572 516 2400 461 
Q 2228 406 1997 406 
Q 1850 406 1700 437 
Q 1550 469 1428 544 
Q 1303 619 1220 741 
Q 1138 863 1125 1041 
L 547 1041 
Q 547 825 645 625 
Q 744 425 931 275 
Q 1116 122 1384 29 
Q 1653 -63 1997 -63 
Q 2297 -63 2550 9 
Q 2803 81 2984 213 
Q 3166 344 3267 528 
Q 3369 713 3369 938 
Q 3369 1147 3280 1306 
Q 3191 1466 3022 1588 
Q 2853 1706 2606 1792 
Q 2359 1878 2047 1944 
Q 1809 1991 1654 2041 
Q 1500 2091 1409 2153 
Q 1316 2216 1278 2294 
Q 1241 2372 1241 2472 
Q 1241 2569 1287 2659 
Q 1334 2750 1428 2819 
Q 1519 2888 1658 2928 
Q 1797 2969 1981 2969 
Q 2159 2969 2301 2919 
Q 2444 2869 2544 2788 
Q 2644 2706 2700 2601 
Q 2756 2497 2756 2388 
L 3334 2388 
Q 3334 2609 3239 2801 
Q 3144 2994 2969 3138 
Q 2794 3281 2544 3362 
Q 2294 3444 1981 3444 
Q 1691 3444 1448 3366 
Q 1206 3288 1031 3153 
Q 856 3019 759 2839 
Q 663 2659 663 2453 
Q 663 2244 756 2086 
Q 850 1928 1022 1813 
Q 1191 1694 1430 1609 
Q 1669 1525 1959 1466 
Q 2197 1419 2356 1361 
Q 2516 1303 2613 1234 
Q 2709 1166 2750 1083 
Q 2791 1000 2791 897 
z
" transform="scale(0.015625)"/>
       </defs>
       <use xlink:href="#RobotoMonoNFM-Rg-59"/>
       <use xlink:href="#RobotoMonoNFM-Rg-65" x="60.009766"/>
       <use xlink:href="#RobotoMonoNFM-Rg-73" x="120.019531"/>
      </g>
     </g>
    </g>
    <g id="xtick_3">
     <g id="line2d_5">
      <path d="M 100.487375 669.669818 
L 100.487375 58.33362 
" clip-path="url(#p06e5755079)" style="fill: none; stroke-dasharray: 0.5,0.825; stroke-dashoffset: 0; stroke: #cccccc; stroke-opacity: 0.3; stroke-width: 0.5"/>
     </g>
     <g id="line2d_6">
      <defs>
       <path id="m877606a70d" d="M 0 0 
L 0 -4 
" style="stroke: #262626"/>
      </defs>
      <g>
       <use xlink:href="#m877606a70d" x="100.487375" y="669.669818" style="fill: #262626; stroke: #262626"/>
      </g>
     </g>
    </g>
    <g id="xtick_4">
     <g id="line2d_7">
      <path d="M 161.918375 669.669818 
L 161.918375 58.33362 
" clip-path="url(#p06e5755079)" style="fill: none; stroke-dasharray: 0.5,0.825; stroke-dashoffset: 0; stroke: #cccccc; stroke-opacity: 0.3; stroke-width: 0.5"/>
     </g>
     <g id="line2d_8">
      <g>
       <use xlink:href="#m877606a70d" x="161.918375" y="669.669818" style="fill: #262626; stroke: #262626"/>
      </g>
     </g>
    </g>
    <g id="xtick_5">
     <g id="line2d_9">
      <path d="M 284.780375 669.669818 
L 284.780375 58.33362 
" clip-path="url(#p06e5755079)" style="fill: none; stroke-dasharray: 0.5,0.825; stroke-dashoffset: 0; stroke: #cccccc; stroke-opacity: 0.3; stroke-width: 0.5"/>
     </g>
     <g id="line2d_10">
      <g>
       <use xlink:href="#m877606a70d" x="284.780375" y="669.669818" style="fill: #262626; stroke: #262626"/>
      </g>
     </g>
    </g>
    <g id="xtick_6">
     <g id="line2d_11">
      <path d="M 346.211375 669.669818 
L 346.211375 58.33362 
" clip-path="url(#p06e5755079)" style="fill: none; stroke-dasharray: 0.5,0.825; stroke-dashoffset: 0; stroke: #cccccc; stroke-opacity: 0.3; stroke-width: 0.5"/>
     </g>
     <g id="line2d_12">
      <g>
       <use xlink:href="#m877606a70d" x="346.211375" y="669.669818" style="fill: #262626; stroke: #262626"/>
      </g>
     </g>
    </g>
    <g id="xtick_7">
     <g id="line2d_13">
      <path d="M 407.642375 669.669818 
L 407.642375 58.33362 
" clip-path="url(#p06e5755079)" style="fill: none; stroke-dasharray: 0.5,0.825; stroke-dashoffset: 0; stroke: #cccccc; stroke-opacity: 0.3; stroke-width: 0.5"/>
     </g>
     <g id="line2d_14">
      <g>
       <use xlink:href="#m877606a70d" x="407.642375" y="669.669818" style="fill: #262626; stroke: #262626"/>
      </g>
     </g>
    </g>
    <g id="xtick_8">
     <g id="line2d_15">
      <path d="M 469.073375 669.669818 
L 469.073375 58.33362 
" clip-path="url(#p06e5755079)" style="fill: none; stroke-dasharray: 0.5,0.825; stroke-dashoffset: 0; stroke: #cccccc; stroke-opacity: 0.3; stroke-width: 0.5"/>
     </g>
     <g id="line2d_16">
      <g>
       <use xlink:href="#m877606a70d" x="469.073375" y="669.669818" style="fill: #262626; stroke: #262626"/>
      </g>
     </g>
    </g>
    <g id="xtick_9">
     <g id="line2d_17">
      <path d="M 591.935375 669.669818 
L 591.935375 58.33362 
" clip-path="url(#p06e5755079)" style="fill: none; stroke-dasharray: 0.5,0.825; stroke-dashoffset: 0; stroke: #cccccc; stroke-opacity: 0.3; stroke-width: 0.5"/>
     </g>
     <g id="line2d_18">
      <g>
       <use xlink:href="#m877606a70d" x="591.935375" y="669.669818" style="fill: #262626; stroke: #262626"/>
      </g>
     </g>
    </g>
    <g id="xtick_10">
     <g id="line2d_19">
      <path d="M 653.366375 669.669818 
L 653.366375 58.33362 
" clip-path="url(#p06e5755079)" style="fill: none; stroke-dasharray: 0.5,0.825; stroke-dashoffset: 0; stroke: #cccccc; stroke-opacity: 0.3; stroke-width: 0.5"/>
     </g>
     <g id="line2d_20">
      <g>
       <use xlink:href="#m877606a70d" x="653.366375" y="669.669818" style="fill: #262626; stroke: #262626"/>
      </g>
     </g>
    </g>
    <g id="text_3">
     <!-- stroke_event -->
     <g style="fill: #262626" transform="translate(304.908125 731.111514) scale(0.2 -0.2)">
      <defs>
       <path id="RobotoMonoNFM-Rg-74" d="M 1913 4200 
L 1331 4200 
L 1331 3381 
L 444 3381 
L 444 2934 
L 1331 2934 
L 1331 1097 
Q 1331 784 1414 564 
Q 1497 344 1641 206 
Q 1784 66 1979 1 
Q 2175 -63 2400 -63 
Q 2534 -63 2670 -50 
Q 2806 -38 2928 -13 
Q 3050 9 3153 42 
Q 3256 75 3328 119 
L 3247 528 
Q 3194 516 3111 498 
Q 3028 481 2934 466 
Q 2838 450 2738 439 
Q 2638 428 2544 428 
Q 2416 428 2302 459 
Q 2188 491 2100 569 
Q 2013 644 1963 772 
Q 1913 900 1913 1097 
L 1913 2934 
L 3200 2934 
L 3200 3381 
L 1913 3381 
L 1913 4200 
z
" transform="scale(0.015625)"/>
       <path id="RobotoMonoNFM-Rg-72" d="M 2759 3444 
Q 2391 3444 2102 3283 
Q 1813 3122 1606 2844 
L 1603 2928 
L 1578 3381 
L 1028 3381 
L 1028 0 
L 1609 0 
L 1609 2169 
Q 1666 2325 1752 2451 
Q 1838 2578 1953 2666 
Q 2081 2766 2253 2817 
Q 2425 2869 2638 2869 
Q 2803 2869 2954 2851 
Q 3106 2834 3275 2797 
L 3353 3363 
Q 3266 3400 3092 3422 
Q 2919 3444 2759 3444 
z
" transform="scale(0.015625)"/>
       <path id="RobotoMonoNFM-Rg-6b" d="M 1556 1578 
L 2797 0 
L 3531 0 
L 1953 1972 
L 3322 3381 
L 2619 3381 
L 1509 2269 
L 1131 1863 
L 1131 4800 
L 550 4800 
L 550 0 
L 1131 0 
L 1131 1169 
L 1556 1578 
z
" transform="scale(0.015625)"/>
       <path id="RobotoMonoNFM-Rg-5f" d="M 3350 -472 
L 3350 0 
L 484 0 
L 484 -472 
L 3350 -472 
z
" transform="scale(0.015625)"/>
       <path id="RobotoMonoNFM-Rg-76" d="M 1697 0 
L 2138 0 
L 3516 3381 
L 2925 3381 
L 1978 831 
L 1922 622 
L 1869 831 
L 900 3381 
L 306 3381 
L 1697 0 
z
" transform="scale(0.015625)"/>
       <path id="RobotoMonoNFM-Rg-6e" d="M 544 0 
L 1122 0 
L 1122 2425 
Q 1181 2534 1261 2625 
Q 1341 2716 1434 2784 
Q 1550 2863 1687 2908 
Q 1825 2953 1984 2953 
Q 2169 2953 2311 2909 
Q 2453 2866 2553 2769 
Q 2650 2672 2700 2515 
Q 2750 2359 2750 2134 
L 2750 0 
L 3328 0 
L 3328 2147 
Q 3328 2484 3245 2729 
Q 3163 2975 3009 3134 
Q 2856 3294 2639 3369 
Q 2422 3444 2156 3444 
Q 1959 3441 1782 3386 
Q 1606 3331 1456 3231 
Q 1356 3166 1267 3077 
Q 1178 2988 1103 2881 
L 1063 3381 
L 544 3381 
L 544 0 
z
" transform="scale(0.015625)"/>
      </defs>
      <use xlink:href="#RobotoMonoNFM-Rg-73"/>
      <use xlink:href="#RobotoMonoNFM-Rg-74" x="60.009766"/>
      <use xlink:href="#RobotoMonoNFM-Rg-72" x="120.019531"/>
      <use xlink:href="#RobotoMonoNFM-Rg-6f" x="180.029297"/>
      <use xlink:href="#RobotoMonoNFM-Rg-6b" x="240.039062"/>
      <use xlink:href="#RobotoMonoNFM-Rg-65" x="300.048828"/>
      <use xlink:href="#RobotoMonoNFM-Rg-5f" x="360.058594"/>
      <use xlink:href="#RobotoMonoNFM-Rg-65" x="420.068359"/>
      <use xlink:href="#RobotoMonoNFM-Rg-76" x="480.078125"/>
      <use xlink:href="#RobotoMonoNFM-Rg-65" x="540.087891"/>
      <use xlink:href="#RobotoMonoNFM-Rg-6e" x="600.097656"/>
      <use xlink:href="#RobotoMonoNFM-Rg-74" x="660.107422"/>
     </g>
    </g>
   </g>
   <g id="matplotlib.axis_2">
    <g id="ytick_1">
     <g id="line2d_21">
      <path d="M 69.771875 669.669818 
L 684.081875 669.669818 
" clip-path="url(#p06e5755079)" style="fill: none; stroke-dasharray: 2.96,1.28; stroke-dashoffset: 0; stroke: #cccccc; stroke-opacity: 0.4; stroke-width: 0.8"/>
     </g>
     <g id="line2d_22">
      <defs>
       <path id="ma410b6fc14" d="M 0 0 
L 8 0 
" style="stroke: #262626; stroke-width: 1.25"/>
      </defs>
      <g>
       <use xlink:href="#ma410b6fc14" x="69.771875" y="669.669818" style="fill: #262626; stroke: #262626; stroke-width: 1.25"/>
      </g>
     </g>
     <g id="text_4">
      <!-- 0 -->
      <g style="fill: #262626" transform="translate(54.26875 677.169818) scale(0.2 -0.2)">
       <defs>
        <path id="RobotoMonoNFM-Rg-30" d="M 3400 1741 
L 3400 2806 
Q 3400 3241 3300 3577 
Q 3200 3913 3013 4144 
Q 2822 4375 2548 4495 
Q 2275 4616 1925 4616 
Q 1578 4616 1304 4495 
Q 1031 4375 844 4144 
Q 653 3913 553 3577 
Q 453 3241 453 2806 
L 453 1741 
Q 453 1306 553 970 
Q 653 634 844 406 
Q 1034 172 1309 54 
Q 1584 -63 1931 -63 
Q 2281 -63 2553 56 
Q 2825 175 3013 406 
Q 3200 634 3300 970 
Q 3400 1306 3400 1741 
z
M 1034 1856 
Q 1034 1938 1034 2016 
Q 1034 2094 1034 2172 
L 1034 2934 
Q 1034 3253 1098 3495 
Q 1163 3738 1294 3891 
Q 1403 4013 1561 4077 
Q 1719 4141 1925 4141 
Q 2128 4141 2283 4081 
Q 2438 4022 2544 3903 
Q 2653 3788 2717 3614 
Q 2781 3441 2806 3216 
L 1034 1856 
z
M 2819 1619 
Q 2819 1284 2751 1037 
Q 2684 791 2541 638 
Q 2434 525 2281 465 
Q 2128 406 1931 406 
Q 1744 406 1594 461 
Q 1444 516 1338 622 
Q 1222 734 1150 907 
Q 1078 1081 1050 1309 
L 2819 2663 
Q 2819 2575 2819 2442 
Q 2819 2309 2819 2263 
L 2819 1619 
z
" transform="scale(0.015625)"/>
       </defs>
       <use xlink:href="#RobotoMonoNFM-Rg-30"/>
      </g>
     </g>
    </g>
    <g id="ytick_2">
     <g id="line2d_23">
      <path d="M 69.771875 553.224828 
L 684.081875 553.224828 
" clip-path="url(#p06e5755079)" style="fill: none; stroke-dasharray: 2.96,1.28; stroke-dashoffset: 0; stroke: #cccccc; stroke-opacity: 0.4; stroke-width: 0.8"/>
     </g>
     <g id="line2d_24">
      <g>
       <use xlink:href="#ma410b6fc14" x="69.771875" y="553.224828" style="fill: #262626; stroke: #262626; stroke-width: 1.25"/>
      </g>
     </g>
     <g id="text_5">
      <!-- 20 -->
      <g style="fill: #262626" transform="translate(42.265625 560.724828) scale(0.2 -0.2)">
       <defs>
        <path id="RobotoMonoNFM-Rg-32" d="M 3334 0 
L 3334 472 
L 1050 472 
L 2272 1797 
Q 2444 1984 2598 2173 
Q 2753 2363 2872 2556 
Q 2988 2750 3056 2948 
Q 3125 3147 3125 3350 
Q 3125 3622 3029 3853 
Q 2934 4084 2756 4253 
Q 2578 4422 2320 4517 
Q 2063 4613 1741 4613 
Q 1391 4613 1117 4500 
Q 844 4388 656 4197 
Q 466 4006 366 3751 
Q 266 3497 266 3209 
L 847 3209 
Q 847 3422 901 3594 
Q 956 3766 1069 3888 
Q 1178 4006 1345 4072 
Q 1513 4138 1741 4138 
Q 1928 4138 2076 4073 
Q 2225 4009 2331 3900 
Q 2434 3791 2489 3642 
Q 2544 3494 2544 3325 
Q 2544 3188 2509 3058 
Q 2475 2928 2394 2784 
Q 2313 2638 2178 2466 
Q 2044 2294 1844 2072 
L 353 416 
L 353 0 
L 3334 0 
z
" transform="scale(0.015625)"/>
       </defs>
       <use xlink:href="#RobotoMonoNFM-Rg-32"/>
       <use xlink:href="#RobotoMonoNFM-Rg-30" x="60.009766"/>
      </g>
     </g>
    </g>
    <g id="ytick_3">
     <g id="line2d_25">
      <path d="M 69.771875 436.779838 
L 684.081875 436.779838 
" clip-path="url(#p06e5755079)" style="fill: none; stroke-dasharray: 2.96,1.28; stroke-dashoffset: 0; stroke: #cccccc; stroke-opacity: 0.4; stroke-width: 0.8"/>
     </g>
     <g id="line2d_26">
      <g>
       <use xlink:href="#ma410b6fc14" x="69.771875" y="436.779838" style="fill: #262626; stroke: #262626; stroke-width: 1.25"/>
      </g>
     </g>
     <g id="text_6">
      <!-- 40 -->
      <g style="fill: #262626" transform="translate(42.265625 444.279838) scale(0.2 -0.2)">
       <defs>
        <path id="RobotoMonoNFM-Rg-34" d="M 2888 1528 
L 2888 4550 
L 2272 4550 
L 234 1397 
L 234 1056 
L 2309 1056 
L 2309 0 
L 2888 0 
L 2888 1056 
L 3522 1056 
L 3522 1528 
L 2888 1528 
z
M 875 1528 
L 2216 3606 
L 2309 3781 
L 2309 1528 
L 875 1528 
z
" transform="scale(0.015625)"/>
       </defs>
       <use xlink:href="#RobotoMonoNFM-Rg-34"/>
       <use xlink:href="#RobotoMonoNFM-Rg-30" x="60.009766"/>
      </g>
     </g>
    </g>
    <g id="ytick_4">
     <g id="line2d_27">
      <path d="M 69.771875 320.334848 
L 684.081875 320.334848 
" clip-path="url(#p06e5755079)" style="fill: none; stroke-dasharray: 2.96,1.28; stroke-dashoffset: 0; stroke: #cccccc; stroke-opacity: 0.4; stroke-width: 0.8"/>
     </g>
     <g id="line2d_28">
      <g>
       <use xlink:href="#ma410b6fc14" x="69.771875" y="320.334848" style="fill: #262626; stroke: #262626; stroke-width: 1.25"/>
      </g>
     </g>
     <g id="text_7">
      <!-- 60 -->
      <g style="fill: #262626" transform="translate(42.265625 327.834848) scale(0.2 -0.2)">
       <defs>
        <path id="RobotoMonoNFM-Rg-36" d="M 2675 4553 
L 2625 4553 
Q 2138 4553 1753 4417 
Q 1369 4281 1100 4013 
Q 709 3622 575 3072 
Q 441 2522 441 1953 
L 441 1681 
Q 441 1350 541 1020 
Q 641 691 844 444 
Q 1025 219 1290 78 
Q 1556 -63 1906 -63 
Q 2253 -63 2517 59 
Q 2781 181 2959 394 
Q 3138 603 3227 884 
Q 3316 1166 3316 1484 
Q 3316 1763 3241 2031 
Q 3166 2300 3006 2513 
Q 2847 2725 2600 2854 
Q 2353 2984 2013 2984 
Q 1856 2984 1714 2948 
Q 1572 2913 1450 2853 
Q 1325 2791 1219 2708 
Q 1113 2625 1031 2528 
Q 1050 2828 1151 3112 
Q 1253 3397 1450 3603 
Q 1638 3800 1925 3917 
Q 2213 4034 2625 4034 
L 2675 4034 
L 2675 4553 
z
M 1919 2503 
Q 2128 2503 2284 2415 
Q 2441 2328 2544 2181 
Q 2647 2034 2697 1845 
Q 2747 1656 2747 1456 
Q 2747 1231 2692 1039 
Q 2638 847 2531 709 
Q 2422 572 2265 494 
Q 2109 416 1906 416 
Q 1731 416 1572 498 
Q 1413 581 1291 741 
Q 1169 900 1097 1133 
Q 1025 1366 1025 1666 
L 1025 1859 
Q 1078 2003 1168 2122 
Q 1259 2241 1378 2325 
Q 1497 2409 1634 2456 
Q 1772 2503 1919 2503 
z
" transform="scale(0.015625)"/>
       </defs>
       <use xlink:href="#RobotoMonoNFM-Rg-36"/>
       <use xlink:href="#RobotoMonoNFM-Rg-30" x="60.009766"/>
      </g>
     </g>
    </g>
    <g id="ytick_5">
     <g id="line2d_29">
      <path d="M 69.771875 203.889857 
L 684.081875 203.889857 
" clip-path="url(#p06e5755079)" style="fill: none; stroke-dasharray: 2.96,1.28; stroke-dashoffset: 0; stroke: #cccccc; stroke-opacity: 0.4; stroke-width: 0.8"/>
     </g>
     <g id="line2d_30">
      <g>
       <use xlink:href="#ma410b6fc14" x="69.771875" y="203.889857" style="fill: #262626; stroke: #262626; stroke-width: 1.25"/>
      </g>
     </g>
     <g id="text_8">
      <!-- 80 -->
      <g style="fill: #262626" transform="translate(42.265625 211.389857) scale(0.2 -0.2)">
       <defs>
        <path id="RobotoMonoNFM-Rg-38" d="M 3344 3363 
Q 3344 3659 3241 3892 
Q 3138 4125 2956 4284 
Q 2775 4444 2528 4528 
Q 2281 4613 1994 4613 
Q 1703 4613 1458 4528 
Q 1213 4444 1038 4284 
Q 859 4125 759 3892 
Q 659 3659 659 3363 
Q 659 3194 706 3041 
Q 753 2888 838 2759 
Q 922 2628 1044 2523 
Q 1166 2419 1316 2344 
Q 1141 2269 1000 2156 
Q 859 2044 759 1903 
Q 659 1759 606 1589 
Q 553 1419 553 1228 
Q 553 916 665 675 
Q 778 434 975 272 
Q 1169 106 1433 21 
Q 1697 -63 2003 -63 
Q 2303 -63 2565 23 
Q 2828 109 3025 275 
Q 3219 438 3333 678 
Q 3447 919 3447 1228 
Q 3447 1419 3392 1587 
Q 3338 1756 3238 1900 
Q 3134 2044 2992 2155 
Q 2850 2266 2675 2341 
Q 2775 2391 2862 2453 
Q 2950 2516 3022 2588 
Q 3172 2738 3256 2936 
Q 3341 3134 3344 3363 
z
M 2869 1241 
Q 2869 1044 2805 889 
Q 2741 734 2628 628 
Q 2513 522 2353 465 
Q 2194 409 2003 409 
Q 1803 409 1642 465 
Q 1481 522 1369 628 
Q 1256 734 1195 889 
Q 1134 1044 1134 1241 
Q 1134 1431 1195 1590 
Q 1256 1750 1369 1866 
Q 1481 1978 1640 2040 
Q 1800 2103 1997 2103 
Q 2188 2103 2348 2040 
Q 2509 1978 2625 1866 
Q 2741 1750 2805 1590 
Q 2869 1431 2869 1241 
z
M 2763 3353 
Q 2763 3178 2706 3034 
Q 2650 2891 2550 2791 
Q 2447 2688 2306 2633 
Q 2166 2578 2000 2578 
Q 1831 2578 1692 2633 
Q 1553 2688 1453 2791 
Q 1350 2891 1295 3033 
Q 1241 3175 1241 3353 
Q 1241 3531 1295 3676 
Q 1350 3822 1450 3925 
Q 1550 4028 1687 4083 
Q 1825 4138 1994 4138 
Q 2163 4138 2303 4080 
Q 2444 4022 2547 3919 
Q 2647 3813 2705 3669 
Q 2763 3525 2763 3353 
z
" transform="scale(0.015625)"/>
       </defs>
       <use xlink:href="#RobotoMonoNFM-Rg-38"/>
       <use xlink:href="#RobotoMonoNFM-Rg-30" x="60.009766"/>
      </g>
     </g>
    </g>
    <g id="ytick_6">
     <g id="line2d_31">
      <path d="M 69.771875 87.444867 
L 684.081875 87.444867 
" clip-path="url(#p06e5755079)" style="fill: none; stroke-dasharray: 2.96,1.28; stroke-dashoffset: 0; stroke: #cccccc; stroke-opacity: 0.4; stroke-width: 0.8"/>
     </g>
     <g id="line2d_32">
      <g>
       <use xlink:href="#ma410b6fc14" x="69.771875" y="87.444867" style="fill: #262626; stroke: #262626; stroke-width: 1.25"/>
      </g>
     </g>
     <g id="text_9">
      <!-- 100 -->
      <g style="fill: #262626" transform="translate(30.2625 94.944867) scale(0.2 -0.2)">
       <defs>
        <path id="RobotoMonoNFM-Rg-31" d="M 2419 0 
L 2419 4550 
L 2372 4550 
L 650 3888 
L 650 3359 
L 1841 3813 
L 1841 0 
L 2419 0 
z
" transform="scale(0.015625)"/>
       </defs>
       <use xlink:href="#RobotoMonoNFM-Rg-31"/>
       <use xlink:href="#RobotoMonoNFM-Rg-30" x="60.009766"/>
       <use xlink:href="#RobotoMonoNFM-Rg-30" x="120.019531"/>
      </g>
     </g>
    </g>
    <g id="ytick_7">
     <g id="line2d_33">
      <path d="M 69.771875 640.55857 
L 684.081875 640.55857 
" clip-path="url(#p06e5755079)" style="fill: none; stroke-dasharray: 0.5,0.825; stroke-dashoffset: 0; stroke: #cccccc; stroke-opacity: 0.3; stroke-width: 0.5"/>
     </g>
     <g id="line2d_34">
      <defs>
       <path id="mb36cec1ad9" d="M 0 0 
L 4 0 
" style="stroke: #262626"/>
      </defs>
      <g>
       <use xlink:href="#mb36cec1ad9" x="69.771875" y="640.55857" style="fill: #262626; stroke: #262626"/>
      </g>
     </g>
    </g>
    <g id="ytick_8">
     <g id="line2d_35">
      <path d="M 69.771875 611.447323 
L 684.081875 611.447323 
" clip-path="url(#p06e5755079)" style="fill: none; stroke-dasharray: 0.5,0.825; stroke-dashoffset: 0; stroke: #cccccc; stroke-opacity: 0.3; stroke-width: 0.5"/>
     </g>
     <g id="line2d_36">
      <g>
       <use xlink:href="#mb36cec1ad9" x="69.771875" y="611.447323" style="fill: #262626; stroke: #262626"/>
      </g>
     </g>
    </g>
    <g id="ytick_9">
     <g id="line2d_37">
      <path d="M 69.771875 582.336075 
L 684.081875 582.336075 
" clip-path="url(#p06e5755079)" style="fill: none; stroke-dasharray: 0.5,0.825; stroke-dashoffset: 0; stroke: #cccccc; stroke-opacity: 0.3; stroke-width: 0.5"/>
     </g>
     <g id="line2d_38">
      <g>
       <use xlink:href="#mb36cec1ad9" x="69.771875" y="582.336075" style="fill: #262626; stroke: #262626"/>
      </g>
     </g>
    </g>
    <g id="ytick_10">
     <g id="line2d_39">
      <path d="M 69.771875 524.11358 
L 684.081875 524.11358 
" clip-path="url(#p06e5755079)" style="fill: none; stroke-dasharray: 0.5,0.825; stroke-dashoffset: 0; stroke: #cccccc; stroke-opacity: 0.3; stroke-width: 0.5"/>
     </g>
     <g id="line2d_40">
      <g>
       <use xlink:href="#mb36cec1ad9" x="69.771875" y="524.11358" style="fill: #262626; stroke: #262626"/>
      </g>
     </g>
    </g>
    <g id="ytick_11">
     <g id="line2d_41">
      <path d="M 69.771875 495.002333 
L 684.081875 495.002333 
" clip-path="url(#p06e5755079)" style="fill: none; stroke-dasharray: 0.5,0.825; stroke-dashoffset: 0; stroke: #cccccc; stroke-opacity: 0.3; stroke-width: 0.5"/>
     </g>
     <g id="line2d_42">
      <g>
       <use xlink:href="#mb36cec1ad9" x="69.771875" y="495.002333" style="fill: #262626; stroke: #262626"/>
      </g>
     </g>
    </g>
    <g id="ytick_12">
     <g id="line2d_43">
      <path d="M 69.771875 465.891085 
L 684.081875 465.891085 
" clip-path="url(#p06e5755079)" style="fill: none; stroke-dasharray: 0.5,0.825; stroke-dashoffset: 0; stroke: #cccccc; stroke-opacity: 0.3; stroke-width: 0.5"/>
     </g>
     <g id="line2d_44">
      <g>
       <use xlink:href="#mb36cec1ad9" x="69.771875" y="465.891085" style="fill: #262626; stroke: #262626"/>
      </g>
     </g>
    </g>
    <g id="ytick_13">
     <g id="line2d_45">
      <path d="M 69.771875 407.66859 
L 684.081875 407.66859 
" clip-path="url(#p06e5755079)" style="fill: none; stroke-dasharray: 0.5,0.825; stroke-dashoffset: 0; stroke: #cccccc; stroke-opacity: 0.3; stroke-width: 0.5"/>
     </g>
     <g id="line2d_46">
      <g>
       <use xlink:href="#mb36cec1ad9" x="69.771875" y="407.66859" style="fill: #262626; stroke: #262626"/>
      </g>
     </g>
    </g>
    <g id="ytick_14">
     <g id="line2d_47">
      <path d="M 69.771875 378.557343 
L 684.081875 378.557343 
" clip-path="url(#p06e5755079)" style="fill: none; stroke-dasharray: 0.5,0.825; stroke-dashoffset: 0; stroke: #cccccc; stroke-opacity: 0.3; stroke-width: 0.5"/>
     </g>
     <g id="line2d_48">
      <g>
       <use xlink:href="#mb36cec1ad9" x="69.771875" y="378.557343" style="fill: #262626; stroke: #262626"/>
      </g>
     </g>
    </g>
    <g id="ytick_15">
     <g id="line2d_49">
      <path d="M 69.771875 349.446095 
L 684.081875 349.446095 
" clip-path="url(#p06e5755079)" style="fill: none; stroke-dasharray: 0.5,0.825; stroke-dashoffset: 0; stroke: #cccccc; stroke-opacity: 0.3; stroke-width: 0.5"/>
     </g>
     <g id="line2d_50">
      <g>
       <use xlink:href="#mb36cec1ad9" x="69.771875" y="349.446095" style="fill: #262626; stroke: #262626"/>
      </g>
     </g>
    </g>
    <g id="ytick_16">
     <g id="line2d_51">
      <path d="M 69.771875 291.2236 
L 684.081875 291.2236 
" clip-path="url(#p06e5755079)" style="fill: none; stroke-dasharray: 0.5,0.825; stroke-dashoffset: 0; stroke: #cccccc; stroke-opacity: 0.3; stroke-width: 0.5"/>
     </g>
     <g id="line2d_52">
      <g>
       <use xlink:href="#mb36cec1ad9" x="69.771875" y="291.2236" style="fill: #262626; stroke: #262626"/>
      </g>
     </g>
    </g>
    <g id="ytick_17">
     <g id="line2d_53">
      <path d="M 69.771875 262.112353 
L 684.081875 262.112353 
" clip-path="url(#p06e5755079)" style="fill: none; stroke-dasharray: 0.5,0.825; stroke-dashoffset: 0; stroke: #cccccc; stroke-opacity: 0.3; stroke-width: 0.5"/>
     </g>
     <g id="line2d_54">
      <g>
       <use xlink:href="#mb36cec1ad9" x="69.771875" y="262.112353" style="fill: #262626; stroke: #262626"/>
      </g>
     </g>
    </g>
    <g id="ytick_18">
     <g id="line2d_55">
      <path d="M 69.771875 233.001105 
L 684.081875 233.001105 
" clip-path="url(#p06e5755079)" style="fill: none; stroke-dasharray: 0.5,0.825; stroke-dashoffset: 0; stroke: #cccccc; stroke-opacity: 0.3; stroke-width: 0.5"/>
     </g>
     <g id="line2d_56">
      <g>
       <use xlink:href="#mb36cec1ad9" x="69.771875" y="233.001105" style="fill: #262626; stroke: #262626"/>
      </g>
     </g>
    </g>
    <g id="ytick_19">
     <g id="line2d_57">
      <path d="M 69.771875 174.77861 
L 684.081875 174.77861 
" clip-path="url(#p06e5755079)" style="fill: none; stroke-dasharray: 0.5,0.825; stroke-dashoffset: 0; stroke: #cccccc; stroke-opacity: 0.3; stroke-width: 0.5"/>
     </g>
     <g id="line2d_58">
      <g>
       <use xlink:href="#mb36cec1ad9" x="69.771875" y="174.77861" style="fill: #262626; stroke: #262626"/>
      </g>
     </g>
    </g>
    <g id="ytick_20">
     <g id="line2d_59">
      <path d="M 69.771875 145.667362 
L 684.081875 145.667362 
" clip-path="url(#p06e5755079)" style="fill: none; stroke-dasharray: 0.5,0.825; stroke-dashoffset: 0; stroke: #cccccc; stroke-opacity: 0.3; stroke-width: 0.5"/>
     </g>
     <g id="line2d_60">
      <g>
       <use xlink:href="#mb36cec1ad9" x="69.771875" y="145.667362" style="fill: #262626; stroke: #262626"/>
      </g>
     </g>
    </g>
    <g id="ytick_21">
     <g id="line2d_61">
      <path d="M 69.771875 116.556115 
L 684.081875 116.556115 
" clip-path="url(#p06e5755079)" style="fill: none; stroke-dasharray: 0.5,0.825; stroke-dashoffset: 0; stroke: #cccccc; stroke-opacity: 0.3; stroke-width: 0.5"/>
     </g>
     <g id="line2d_62">
      <g>
       <use xlink:href="#mb36cec1ad9" x="69.771875" y="116.556115" style="fill: #262626; stroke: #262626"/>
      </g>
     </g>
    </g>
    <g id="ytick_22">
     <g id="line2d_63">
      <path d="M 69.771875 58.33362 
L 684.081875 58.33362 
" clip-path="url(#p06e5755079)" style="fill: none; stroke-dasharray: 0.5,0.825; stroke-dashoffset: 0; stroke: #cccccc; stroke-opacity: 0.3; stroke-width: 0.5"/>
     </g>
     <g id="line2d_64">
      <g>
       <use xlink:href="#mb36cec1ad9" x="69.771875" y="58.33362" style="fill: #262626; stroke: #262626"/>
      </g>
     </g>
    </g>
    <g id="text_10">
     <!-- Percentage -->
     <g style="fill: #262626" transform="translate(22.103125 424.017344) rotate(-90) scale(0.2 -0.2)">
      <defs>
       <path id="RobotoMonoNFM-Rg-50" d="M 1175 1825 
L 2072 1825 
Q 2378 1828 2651 1918 
Q 2925 2009 3131 2181 
Q 3338 2353 3458 2604 
Q 3578 2856 3578 3184 
Q 3578 3513 3458 3766 
Q 3338 4019 3131 4191 
Q 2925 4363 2651 4453 
Q 2378 4544 2072 4550 
L 597 4550 
L 597 0 
L 1175 0 
L 1175 1825 
z
M 1175 2300 
L 1175 4075 
L 2072 4075 
Q 2272 4072 2442 4009 
Q 2613 3947 2738 3831 
Q 2859 3716 2929 3550 
Q 3000 3384 3000 3178 
Q 3000 2972 2929 2811 
Q 2859 2650 2734 2538 
Q 2609 2425 2440 2364 
Q 2272 2303 2072 2300 
L 1175 2300 
z
" transform="scale(0.015625)"/>
       <path id="RobotoMonoNFM-Rg-63" d="M 1984 406 
Q 1713 406 1530 514 
Q 1347 622 1238 797 
Q 1125 969 1076 1186 
Q 1028 1403 1028 1625 
L 1028 1756 
Q 1028 1975 1076 2190 
Q 1125 2406 1238 2581 
Q 1350 2753 1533 2861 
Q 1716 2969 1984 2969 
Q 2159 2969 2311 2909 
Q 2463 2850 2572 2747 
Q 2681 2644 2745 2508 
Q 2809 2372 2813 2219 
L 3359 2219 
Q 3359 2475 3256 2700 
Q 3153 2925 2972 3091 
Q 2788 3253 2536 3348 
Q 2284 3444 1984 3444 
Q 1600 3444 1312 3306 
Q 1025 3169 834 2938 
Q 641 2703 544 2397 
Q 447 2091 447 1756 
L 447 1625 
Q 447 1288 544 983 
Q 641 678 834 447 
Q 1025 213 1312 75 
Q 1600 -63 1984 -63 
Q 2253 -63 2500 29 
Q 2747 122 2938 278 
Q 3128 431 3242 636 
Q 3356 841 3359 1066 
L 2813 1066 
Q 2809 925 2739 804 
Q 2669 684 2553 597 
Q 2438 506 2289 456 
Q 2141 406 1984 406 
z
" transform="scale(0.015625)"/>
       <path id="RobotoMonoNFM-Rg-61" d="M 2766 0 
L 3369 0 
L 3369 50 
Q 3313 191 3281 380 
Q 3250 569 3250 738 
L 3250 2309 
Q 3250 2594 3147 2806 
Q 3044 3019 2866 3163 
Q 2684 3303 2437 3373 
Q 2191 3444 1903 3444 
Q 1588 3444 1339 3356 
Q 1091 3269 919 3128 
Q 744 2984 651 2806 
Q 559 2628 556 2444 
L 1138 2444 
Q 1138 2550 1189 2648 
Q 1241 2747 1334 2819 
Q 1428 2891 1564 2934 
Q 1700 2978 1872 2978 
Q 2056 2978 2204 2931 
Q 2353 2884 2456 2800 
Q 2559 2713 2615 2591 
Q 2672 2469 2672 2316 
L 2672 2050 
L 2041 2050 
Q 1688 2050 1402 1981 
Q 1116 1913 913 1775 
Q 709 1634 598 1425 
Q 488 1216 488 938 
Q 488 725 570 542 
Q 653 359 806 228 
Q 956 94 1173 15 
Q 1391 -63 1659 -63 
Q 1825 -63 1972 -28 
Q 2119 6 2250 66 
Q 2378 125 2486 203 
Q 2594 281 2681 369 
Q 2691 263 2711 164 
Q 2731 66 2766 0 
z
M 1744 441 
Q 1575 441 1447 484 
Q 1319 528 1234 606 
Q 1150 681 1108 787 
Q 1066 894 1066 1019 
Q 1066 1150 1114 1253 
Q 1163 1356 1256 1431 
Q 1388 1538 1611 1589 
Q 1834 1641 2134 1641 
L 2672 1641 
L 2672 956 
Q 2622 856 2534 764 
Q 2447 672 2328 600 
Q 2206 528 2059 484 
Q 1913 441 1744 441 
z
" transform="scale(0.015625)"/>
       <path id="RobotoMonoNFM-Rg-67" d="M 438 1719 
L 438 1653 
Q 438 1291 531 977 
Q 625 663 800 431 
Q 972 200 1222 68 
Q 1472 -63 1781 -63 
Q 1966 -63 2125 -23 
Q 2284 16 2416 88 
Q 2500 134 2573 196 
Q 2647 259 2713 334 
L 2713 44 
Q 2713 -175 2650 -344 
Q 2588 -513 2472 -625 
Q 2353 -741 2187 -800 
Q 2022 -859 1816 -859 
Q 1700 -859 1584 -836 
Q 1469 -813 1353 -759 
Q 1238 -706 1125 -617 
Q 1013 -528 906 -400 
L 606 -747 
Q 722 -913 883 -1025 
Q 1044 -1138 1219 -1203 
Q 1391 -1272 1559 -1301 
Q 1728 -1331 1859 -1331 
Q 2178 -1331 2440 -1237 
Q 2703 -1144 2894 -963 
Q 3081 -781 3186 -522 
Q 3291 -263 3291 72 
L 3291 3381 
L 2766 3381 
L 2738 3013 
Q 2678 3088 2611 3150 
Q 2544 3213 2469 3259 
Q 2331 3350 2161 3397 
Q 1991 3444 1788 3444 
Q 1472 3444 1222 3316 
Q 972 3188 797 2959 
Q 622 2731 530 2414 
Q 438 2097 438 1719 
z
M 1016 1653 
L 1016 1719 
Q 1016 1966 1067 2189 
Q 1119 2413 1231 2584 
Q 1341 2753 1514 2853 
Q 1688 2953 1931 2953 
Q 2075 2953 2194 2917 
Q 2313 2881 2409 2819 
Q 2506 2753 2581 2665 
Q 2656 2578 2713 2472 
L 2713 922 
Q 2656 813 2581 722 
Q 2506 631 2413 566 
Q 2316 500 2195 464 
Q 2075 428 1925 428 
Q 1684 428 1512 526 
Q 1341 625 1231 794 
Q 1119 963 1067 1184 
Q 1016 1406 1016 1653 
z
" transform="scale(0.015625)"/>
      </defs>
      <use xlink:href="#RobotoMonoNFM-Rg-50"/>
      <use xlink:href="#RobotoMonoNFM-Rg-65" x="60.009766"/>
      <use xlink:href="#RobotoMonoNFM-Rg-72" x="120.019531"/>
      <use xlink:href="#RobotoMonoNFM-Rg-63" x="180.029297"/>
      <use xlink:href="#RobotoMonoNFM-Rg-65" x="240.039062"/>
      <use xlink:href="#RobotoMonoNFM-Rg-6e" x="300.048828"/>
      <use xlink:href="#RobotoMonoNFM-Rg-74" x="360.058594"/>
      <use xlink:href="#RobotoMonoNFM-Rg-61" x="420.068359"/>
      <use xlink:href="#RobotoMonoNFM-Rg-67" x="480.078125"/>
      <use xlink:href="#RobotoMonoNFM-Rg-65" x="540.087891"/>
     </g>
    </g>
   </g>
   <g id="patch_3">
    <path d="M 146.560625 669.669818 
L 300.138125 669.669818 
L 300.138125 176.431213 
L 146.560625 176.431213 
z
" clip-path="url(#p06e5755079)" style="fill: #4c72b0; stroke: #ffffff; stroke-linejoin: miter"/>
   </g>
   <g id="patch_4">
    <path d="M 453.715625 669.669818 
L 607.293125 669.669818 
L 607.293125 320.334848 
L 453.715625 320.334848 
z
" clip-path="url(#p06e5755079)" style="fill: #4c72b0; stroke: #ffffff; stroke-linejoin: miter"/>
   </g>
   <g id="patch_5">
    <path d="M 146.560625 176.431213 
L 300.138125 176.431213 
L 300.138125 87.444867 
L 146.560625 87.444867 
z
" clip-path="url(#p06e5755079)" style="fill: #dd8452; stroke: #ffffff; stroke-linejoin: miter"/>
   </g>
   <g id="patch_6">
    <path d="M 453.715625 320.334848 
L 607.293125 320.334848 
L 607.293125 87.444867 
L 453.715625 87.444867 
z
" clip-path="url(#p06e5755079)" style="fill: #dd8452; stroke: #ffffff; stroke-linejoin: miter"/>
   </g>
   <g id="patch_7">
    <path d="M 69.771875 669.669818 
L 69.771875 58.33362 
" style="fill: none; stroke: #262626; stroke-width: 1.25; stroke-linejoin: miter; stroke-linecap: square"/>
   </g>
   <g id="patch_8">
    <path d="M 684.081875 669.669818 
L 684.081875 58.33362 
" style="fill: none; stroke: #262626; stroke-width: 1.25; stroke-linejoin: miter; stroke-linecap: square"/>
   </g>
   <g id="patch_9">
    <path d="M 69.771875 669.669818 
L 684.081875 669.669818 
" style="fill: none; stroke: #262626; stroke-width: 1.25; stroke-linejoin: miter; stroke-linecap: square"/>
   </g>
   <g id="patch_10">
    <path d="M 69.771875 58.33362 
L 684.081875 58.33362 
" style="fill: none; stroke: #262626; stroke-width: 1.25; stroke-linejoin: miter; stroke-linecap: square"/>
   </g>
   <g id="legend_1">
    <g id="patch_11">
     <path d="M 270.919062 30.2 
L 310.919062 30.2 
L 310.919062 16.2 
L 270.919062 16.2 
z
" style="fill: #4c72b0; stroke: #ffffff; stroke-linejoin: miter"/>
    </g>
    <g id="text_11">
     <!-- No -->
     <g style="fill: #262626" transform="translate(326.919062 30.2) scale(0.2 -0.2)">
      <use xlink:href="#RobotoMonoNFM-Rg-4e"/>
      <use xlink:href="#RobotoMonoNFM-Rg-6f" x="60.009766"/>
     </g>
    </g>
    <g id="patch_12">
     <path d="M 390.925313 30.2 
L 430.925313 30.2 
L 430.925313 16.2 
L 390.925313 16.2 
z
" style="fill: #dd8452; stroke: #ffffff; stroke-linejoin: miter"/>
    </g>
    <g id="text_12">
     <!-- Yes -->
     <g style="fill: #262626" transform="translate(446.925313 30.2) scale(0.2 -0.2)">
      <use xlink:href="#RobotoMonoNFM-Rg-59"/>
      <use xlink:href="#RobotoMonoNFM-Rg-65" x="60.009766"/>
      <use xlink:href="#RobotoMonoNFM-Rg-73" x="120.019531"/>
     </g>
    </g>
   </g>
  </g>
 </g>
 <defs>
  <clipPath id="p06e5755079">
   <rect x="69.771875" y="58.33362" width="614.31" height="611.336198"/>
  </clipPath>
 </defs>
</svg>
